<svg width="521" height="536" viewBox="0 0 521 536" fill="none" xmlns="http://www.w3.org/2000/svg">
<path d="M260.26 535.58C403.854 535.58 520.26 463.957 520.26 375.606C520.26 287.255 403.854 215.633 260.26 215.633C116.666 215.633 0.26001 287.255 0.26001 375.606C0.26001 463.957 116.666 535.58 260.26 535.58Z" fill="#F5F5F5"/>
<path d="M470.073 430.248L384.073 377.179C383.7 376.975 383.287 376.868 382.868 376.868C382.45 376.868 382.037 376.975 381.664 377.179L303.077 425.422C302.932 425.475 302.806 425.574 302.717 425.707C302.628 425.839 302.58 425.998 302.58 426.161C302.58 426.324 302.628 426.484 302.717 426.616C302.806 426.749 302.932 426.848 303.077 426.901L389.089 479.969C389.46 480.173 389.871 480.28 390.288 480.28C390.705 480.28 391.116 480.173 391.486 479.969L470.085 431.726C470.739 431.324 470.739 430.662 470.073 430.248Z" fill="#E0E0E0"/>
<path d="M399.511 315.3L313.499 262.231C313.127 262.033 312.716 261.929 312.3 261.929C311.884 261.929 311.473 262.033 311.101 262.231L77.8483 405.47C77.1824 405.872 77.1824 406.534 77.8483 406.948L163.849 459.969C164.22 460.171 164.631 460.276 165.048 460.276C165.464 460.276 165.875 460.171 166.246 459.969L399.511 316.778C399.655 316.726 399.781 316.626 399.871 316.494C399.96 316.361 400.008 316.202 400.008 316.039C400.008 315.876 399.96 315.717 399.871 315.584C399.781 315.452 399.655 315.352 399.511 315.3Z" fill="#E0E0E0"/>
<path d="M99.3568 341.071C129.14 341.071 153.284 326.218 153.284 307.896C153.284 289.574 129.14 274.721 99.3568 274.721C69.574 274.721 45.4302 289.574 45.4302 307.896C45.4302 326.218 69.574 341.071 99.3568 341.071Z" fill="#E0E0E0"/>
<path d="M392.141 316.175L318.937 361.213V313.81L392.141 268.76V316.175Z" fill="#37474F"/>
<path d="M245.732 316.175L318.937 361.213V313.81L245.732 268.76V316.175Z" fill="#263238"/>
<path d="M392.141 268.76L318.937 223.722L245.732 268.76L318.937 313.81L392.141 268.76Z" fill="black"/>
<path d="M331.811 277.583C335.373 279.771 337.149 282.645 337.149 285.519V293.207C337.149 296.081 335.373 298.955 331.811 301.143C327.841 303.391 323.398 304.523 318.904 304.431V274.283C323.4 274.189 327.844 275.325 331.811 277.583V277.583Z" fill="#37474F"/>
<path d="M306.03 277.583C302.467 279.771 300.691 282.645 300.691 285.519V293.207C300.691 296.081 302.467 298.955 306.03 301.143C310 303.391 314.442 304.523 318.937 304.431V274.283C314.441 274.189 309.997 275.325 306.03 277.583V277.583Z" fill="#263238"/>
<path d="M306.03 277.583C298.905 281.959 298.905 289.067 306.03 293.455C313.155 297.843 324.708 297.843 331.844 293.455C338.981 289.067 338.969 281.959 331.844 277.583C324.719 273.207 313.155 273.195 306.03 277.583Z" fill="#455A64"/>
<path opacity="0.07" d="M306.03 277.583C298.905 281.959 298.905 289.067 306.03 293.455C313.155 297.843 324.708 297.843 331.844 293.455C338.981 289.067 338.969 281.959 331.844 277.583C324.719 273.207 313.155 273.195 306.03 277.583Z" fill="white"/>
<path d="M331.811 233.645C335.373 235.833 337.149 238.707 337.149 241.581V249.257C337.149 252.131 335.373 255.005 331.811 257.193C327.843 259.447 323.399 260.579 318.904 260.481V230.357C323.398 230.265 327.841 231.397 331.811 233.645V233.645Z" fill="#37474F"/>
<path d="M306.03 233.645C302.467 235.833 300.691 238.707 300.691 241.581V249.257C300.691 252.131 302.467 255.005 306.03 257.193C309.998 259.447 314.442 260.579 318.937 260.481V230.357C314.442 230.265 310 231.397 306.03 233.645V233.645Z" fill="#263238"/>
<path d="M306.03 233.645C298.905 238.033 298.905 245.141 306.03 249.529C313.155 253.917 324.708 253.905 331.844 249.529C338.981 245.153 338.969 238.033 331.844 233.645C324.719 229.257 313.155 229.257 306.03 233.645Z" fill="#455A64"/>
<path opacity="0.07" d="M306.03 233.645C298.905 238.033 298.905 245.141 306.03 249.529C313.155 253.917 324.708 253.905 331.844 249.529C338.981 245.153 338.969 238.033 331.844 233.645C324.719 229.257 313.155 229.257 306.03 233.645Z" fill="white"/>
<path d="M367.525 255.62C371.088 257.808 372.875 260.682 372.875 263.556V271.232C372.875 274.106 371.088 276.98 367.525 279.168C363.559 281.416 359.12 282.548 354.629 282.456V252.332C359.121 252.234 363.561 253.366 367.525 255.62V255.62Z" fill="#37474F"/>
<path d="M341.722 255.62C338.159 257.808 336.383 260.682 336.383 263.556V271.232C336.383 274.106 338.159 276.98 341.722 279.168C345.692 281.416 350.134 282.548 354.629 282.456V252.332C350.133 252.234 345.69 253.366 341.722 255.62V255.62Z" fill="#263238"/>
<path d="M341.722 255.62C334.597 259.996 334.597 267.104 341.722 271.492C348.847 275.88 360.4 275.88 367.525 271.492C374.65 267.104 374.662 259.996 367.525 255.62C360.389 251.244 348.847 251.232 341.722 255.62Z" fill="#455A64"/>
<path opacity="0.07" d="M341.722 255.62C334.597 259.996 334.597 267.104 341.722 271.492C348.847 275.88 360.4 275.88 367.525 271.492C374.65 267.104 374.662 259.996 367.525 255.62C360.389 251.244 348.847 251.232 341.722 255.62Z" fill="white"/>
<path d="M296.152 255.596C299.715 257.796 301.49 260.67 301.49 263.544V271.22C301.49 274.082 299.715 276.956 296.152 279.156C292.182 281.404 287.74 282.536 283.245 282.444V252.309C287.74 252.217 292.182 253.348 296.152 255.596V255.596Z" fill="#37474F"/>
<path d="M270.338 255.596C266.775 257.796 264.999 260.67 264.999 263.544V271.22C264.999 274.082 266.775 276.956 270.338 279.156C274.307 281.404 278.75 282.536 283.245 282.444V252.309C278.75 252.217 274.307 253.348 270.338 255.596V255.596Z" fill="#263238"/>
<path d="M270.337 255.596C263.212 259.984 263.212 267.092 270.337 271.48C277.463 275.868 289.027 275.868 296.152 271.48C303.277 267.092 303.277 259.984 296.152 255.596C289.027 251.209 277.429 251.22 270.337 255.596Z" fill="#455A64"/>
<path opacity="0.07" d="M270.337 255.596C263.212 259.984 263.212 267.092 270.337 271.48C277.463 275.868 289.027 275.868 296.152 271.48C303.277 267.092 303.277 259.984 296.152 255.596C289.027 251.209 277.429 251.22 270.337 255.596Z" fill="white"/>
<path d="M463.492 431.655L390.288 476.693V429.278L463.492 384.24V431.655Z" fill="#407BFF"/>
<path opacity="0.1" d="M463.492 431.655L390.288 476.693V429.278L463.492 384.24V431.655Z" fill="black"/>
<path d="M317.094 431.655L390.288 476.693V429.278L317.083 384.24L317.094 431.655Z" fill="#407BFF"/>
<path opacity="0.2" d="M317.094 431.655L390.288 476.693V429.278L317.083 384.24L317.094 431.655Z" fill="black"/>
<path d="M463.492 384.24L390.288 339.202L317.083 384.24L390.288 429.278L463.492 384.24Z" fill="#407BFF"/>
<path d="M408.533 357.073C408.533 354.199 406.758 351.325 403.195 349.137C396.07 344.749 384.517 344.749 377.392 349.137C373.829 351.325 372.042 354.199 372.042 357.073V364.749C372.042 367.623 373.829 370.485 377.392 372.685C384.517 377.073 396.07 377.073 403.195 372.685C406.758 370.485 408.545 367.623 408.533 364.749V357.073Z" fill="#407BFF"/>
<path opacity="0.1" d="M403.195 349.125C406.757 351.313 408.544 354.187 408.533 357.061V364.737C408.533 367.611 406.757 370.473 403.195 372.673C399.228 374.934 394.785 376.078 390.288 375.997V345.837C394.783 345.74 399.227 346.872 403.195 349.125V349.125Z" fill="black"/>
<path opacity="0.2" d="M377.392 349.125C373.829 351.313 372.042 354.187 372.042 357.061V364.737C372.042 367.611 373.829 370.473 377.392 372.673C381.355 374.932 385.794 376.076 390.288 375.997V345.837C385.796 345.741 381.356 346.873 377.392 349.125V349.125Z" fill="black"/>
<path d="M377.391 349.125C370.266 353.501 370.266 360.61 377.391 364.997C384.517 369.385 396.07 369.385 403.195 364.997C410.32 360.61 410.32 353.501 403.195 349.125C396.07 344.749 384.517 344.738 377.391 349.125Z" fill="#407BFF"/>
<path opacity="0.3" d="M377.391 349.125C370.266 353.501 370.266 360.61 377.391 364.997C384.517 369.385 396.07 369.385 403.195 364.997C410.32 360.61 410.32 353.501 403.195 349.125C396.07 344.749 384.517 344.738 377.391 349.125Z" fill="white"/>
<path d="M408.533 400.987C408.533 398.125 406.758 395.251 403.195 393.051C396.07 388.663 384.517 388.663 377.392 393.051C373.829 395.251 372.042 398.113 372.042 400.987V408.663C372.042 411.537 373.829 414.411 377.392 416.599C384.517 420.987 396.07 420.987 403.195 416.599C406.758 414.411 408.545 411.537 408.533 408.663V400.987Z" fill="#407BFF"/>
<path opacity="0.1" d="M403.195 393.051C406.757 395.251 408.544 398.113 408.533 400.987V408.663C408.533 411.537 406.757 414.411 403.195 416.599C399.229 418.858 394.784 419.991 390.288 419.887V389.763C394.782 389.671 399.225 390.803 403.195 393.051V393.051Z" fill="black"/>
<path opacity="0.2" d="M377.392 393.051C373.829 395.251 372.042 398.113 372.042 400.987V408.663C372.042 411.537 373.829 414.411 377.392 416.599C381.354 418.857 385.796 419.989 390.288 419.887V389.763C385.797 389.673 381.358 390.805 377.392 393.051Z" fill="black"/>
<path d="M377.391 393.051C370.266 397.439 370.266 404.547 377.391 408.935C384.517 413.323 396.07 413.311 403.195 408.935C410.32 404.559 410.32 397.439 403.195 393.051C396.07 388.663 384.517 388.663 377.391 393.051Z" fill="#407BFF"/>
<path opacity="0.3" d="M377.391 393.051C370.266 397.439 370.266 404.547 377.391 408.935C384.517 413.323 396.07 413.311 403.195 408.935C410.32 404.559 410.32 397.439 403.195 393.051C396.07 388.663 384.517 388.663 377.391 393.051Z" fill="white"/>
<path d="M372.874 379.013C372.874 376.139 371.088 373.265 367.525 371.077C360.4 366.689 348.847 366.689 341.721 371.077C338.159 373.265 336.372 376.139 336.372 379.013V386.641C336.372 389.515 338.159 392.389 341.721 394.577C348.847 398.965 360.4 398.965 367.525 394.577C371.088 392.389 372.874 389.515 372.874 386.641C372.874 384.559 372.874 381.141 372.874 379.013Z" fill="#407BFF"/>
<path opacity="0.1" d="M367.503 371.077C371.066 373.265 372.852 376.139 372.852 379.013C372.852 381.141 372.852 384.559 372.852 386.688C372.852 389.562 371.066 392.436 367.503 394.624C363.535 396.878 359.091 398.01 354.596 397.912V367.789C359.091 367.697 363.533 368.828 367.503 371.077Z" fill="black"/>
<path opacity="0.2" d="M341.699 371.077C338.137 373.265 336.35 376.139 336.35 379.013V386.641C336.35 389.515 338.137 392.389 341.699 394.577C345.664 396.829 350.104 397.961 354.595 397.865V367.789C350.104 367.698 345.666 368.83 341.699 371.077Z" fill="black"/>
<path d="M341.699 371.077C334.574 375.464 334.574 382.573 341.699 386.949C348.824 391.325 360.378 391.336 367.503 386.949C374.628 382.561 374.628 375.464 367.503 371.077C360.378 366.689 348.824 366.689 341.699 371.077Z" fill="#407BFF"/>
<path opacity="0.3" d="M341.699 371.077C334.574 375.464 334.574 382.573 341.699 386.949C348.824 391.325 360.378 391.336 367.503 386.949C374.628 382.561 374.628 375.464 367.503 371.077C360.378 366.689 348.824 366.689 341.699 371.077Z" fill="white"/>
<path d="M444.225 379.024C444.225 376.15 442.45 373.276 438.887 371.088C431.762 366.701 420.209 366.701 413.084 371.088C409.51 373.276 407.734 376.15 407.734 379.024V386.7C407.734 389.574 409.51 392.448 413.072 394.636C420.209 399.024 431.762 399.024 438.887 394.636C442.45 392.448 444.225 389.574 444.225 386.7V379.024Z" fill="#407BFF"/>
<path opacity="0.1" d="M438.887 371.088C442.45 373.276 444.226 376.15 444.226 379.024V386.7C444.226 389.574 442.45 392.448 438.887 394.636C434.919 396.89 430.475 398.022 425.98 397.924V367.8C430.475 367.708 434.917 368.84 438.887 371.088V371.088Z" fill="black"/>
<path opacity="0.2" d="M413.084 371.088C409.51 373.276 407.734 376.15 407.734 379.024V386.7C407.734 389.574 409.51 392.448 413.072 394.636C417.041 396.888 421.484 398.02 425.98 397.924V367.8C421.488 367.708 417.049 368.84 413.084 371.088V371.088Z" fill="black"/>
<path d="M413.084 371.088C405.947 375.476 405.947 382.584 413.084 386.972C420.22 391.36 431.773 391.348 438.898 386.972C446.023 382.596 446.023 375.476 438.898 371.088C431.773 366.701 420.209 366.701 413.084 371.088Z" fill="#407BFF"/>
<path opacity="0.3" d="M413.084 371.088C405.947 375.476 405.947 382.584 413.084 386.972C420.22 391.36 431.773 391.348 438.898 386.972C446.023 382.596 446.023 375.476 438.898 371.088C431.773 366.701 420.209 366.701 413.084 371.088Z" fill="white"/>
<path d="M392.141 265.33L318.937 310.368V262.953L392.141 217.915V265.33Z" fill="#407BFF"/>
<path opacity="0.3" d="M392.141 265.33L318.937 310.368V262.953L392.141 217.915V265.33Z" fill="black"/>
<path d="M245.732 265.33L318.937 310.368V262.953L245.732 217.915V265.33Z" fill="#407BFF"/>
<path opacity="0.4" d="M245.732 265.33L318.937 310.368V262.953L245.732 217.915V265.33Z" fill="black"/>
<path d="M392.141 217.915L318.937 172.878L245.732 217.915L318.937 262.953L392.141 217.915Z" fill="#407BFF"/>
<path opacity="0.55" d="M392.141 217.915L318.937 172.878L245.732 217.915L318.937 262.953L392.141 217.915Z" fill="black"/>
<path d="M337.183 190.737C337.183 187.863 335.407 184.989 331.844 182.801C324.719 178.413 313.155 178.413 306.03 182.801C302.467 184.989 300.691 187.863 300.691 190.737V198.412C300.691 201.286 302.467 204.16 306.03 206.348C313.155 210.736 324.708 210.736 331.844 206.348C335.407 204.16 337.183 201.286 337.183 198.412V190.737Z" fill="#407BFF"/>
<path opacity="0.3" d="M331.811 182.801C335.373 184.989 337.149 187.863 337.149 190.737V198.412C337.149 201.286 335.373 204.16 331.811 206.348C327.841 208.597 323.398 209.728 318.904 209.636V179.513C323.399 179.415 327.843 180.547 331.811 182.801V182.801Z" fill="black"/>
<path opacity="0.4" d="M306.03 182.801C302.467 184.989 300.691 187.863 300.691 190.737V198.412C300.691 201.286 302.467 204.16 306.03 206.348C310 208.597 314.442 209.728 318.937 209.636V179.513C314.442 179.415 309.998 180.547 306.03 182.801V182.801Z" fill="black"/>
<path d="M306.03 182.801C298.905 187.177 298.905 194.285 306.03 198.673C313.155 203.06 324.708 203.06 331.844 198.673C338.981 194.285 338.969 187.177 331.844 182.801C324.719 178.424 313.155 178.413 306.03 182.801Z" fill="#407BFF"/>
<path opacity="0.3" d="M306.03 182.801C298.905 187.177 298.905 194.285 306.03 198.673C313.155 203.06 324.708 203.06 331.844 198.673C338.981 194.285 338.969 187.177 331.844 182.801C324.719 178.424 313.155 178.413 306.03 182.801Z" fill="white"/>
<path d="M337.183 234.674C337.183 231.8 335.407 228.926 331.844 226.726C324.719 222.35 313.155 222.35 306.03 226.726C302.467 228.926 300.691 231.8 300.691 234.662V242.35C300.691 245.224 302.467 248.098 306.03 250.298C313.155 254.674 324.708 254.674 331.844 250.298C335.407 248.098 337.183 245.224 337.183 242.35V234.674Z" fill="#407BFF"/>
<path opacity="0.3" d="M331.811 226.726C335.373 228.926 337.149 231.8 337.149 234.662V242.35C337.149 245.224 335.373 248.098 331.811 250.298C327.841 252.546 323.398 253.678 318.904 253.586V223.427C323.399 223.338 327.842 224.474 331.811 226.726V226.726Z" fill="black"/>
<path opacity="0.4" d="M306.03 226.726C302.467 228.926 300.691 231.8 300.691 234.662V242.35C300.691 245.224 302.467 248.098 306.03 250.298C310 252.546 314.442 253.678 318.937 253.586V223.427C314.441 223.338 309.999 224.474 306.03 226.726Z" fill="black"/>
<path d="M306.03 226.726C298.905 231.114 298.905 238.222 306.03 242.61C313.155 246.998 324.708 246.998 331.844 242.61C338.981 238.222 338.969 231.114 331.844 226.726C324.719 222.339 313.155 222.35 306.03 226.726Z" fill="#407BFF"/>
<path opacity="0.3" d="M306.03 226.726C298.905 231.114 298.905 238.222 306.03 242.61C313.155 246.998 324.708 246.998 331.844 242.61C338.981 238.222 338.969 231.114 331.844 226.726C324.719 222.339 313.155 222.35 306.03 226.726Z" fill="white"/>
<path d="M301.49 212.688C301.49 209.814 299.715 206.94 296.152 204.752C289.027 200.364 277.474 200.364 270.338 204.752C266.775 206.94 264.999 209.814 264.999 212.688V220.363C264.999 223.237 266.775 226.111 270.338 228.299C277.463 232.687 289.027 232.687 296.152 228.299C299.715 226.111 301.49 223.237 301.49 220.363V212.688Z" fill="#407BFF"/>
<path opacity="0.3" d="M296.152 204.752C299.715 206.94 301.49 209.814 301.49 212.688V220.363C301.49 223.237 299.715 226.111 296.152 228.299C292.184 230.553 287.74 231.685 283.245 231.587V201.464C287.74 201.372 292.182 202.503 296.152 204.752V204.752Z" fill="black"/>
<path opacity="0.4" d="M270.338 204.752C266.775 206.94 264.999 209.814 264.999 212.688V220.363C264.999 223.237 266.775 226.111 270.338 228.299C274.306 230.553 278.749 231.685 283.245 231.587V201.464C278.75 201.372 274.307 202.503 270.338 204.752Z" fill="black"/>
<path d="M270.337 204.752C263.212 209.14 263.212 216.248 270.337 220.636C277.463 225.023 289.027 225.012 296.152 220.636C303.277 216.259 303.277 209.14 296.152 204.752C289.027 200.364 277.429 200.364 270.337 204.752Z" fill="#407BFF"/>
<path opacity="0.3" d="M270.337 204.752C263.212 209.14 263.212 216.248 270.337 220.636C277.463 225.023 289.027 225.012 296.152 220.636C303.277 216.259 303.277 209.14 296.152 204.752C289.027 200.364 277.429 200.364 270.337 204.752Z" fill="white"/>
<path d="M372.875 212.699C372.875 209.837 371.099 206.963 367.525 204.763C360.4 200.376 348.847 200.376 341.722 204.763C338.159 206.963 336.383 209.825 336.383 212.699V220.375C336.383 223.249 338.159 226.123 341.722 228.311C348.847 232.699 360.4 232.699 367.525 228.311C371.099 226.123 372.875 223.249 372.875 220.375V212.699Z" fill="#407BFF"/>
<path opacity="0.3" d="M367.525 204.763C371.088 206.963 372.875 209.825 372.875 212.699V220.375C372.875 223.249 371.088 226.123 367.525 228.311C363.561 230.565 359.121 231.697 354.629 231.599V201.476C359.12 201.384 363.559 202.515 367.525 204.763V204.763Z" fill="black"/>
<path opacity="0.4" d="M341.722 204.763C338.159 206.963 336.383 209.825 336.383 212.699V220.375C336.383 223.249 338.159 226.123 341.722 228.311C345.69 230.565 350.133 231.697 354.629 231.599V201.476C350.134 201.384 345.692 202.515 341.722 204.763V204.763Z" fill="black"/>
<path d="M341.722 204.763C334.597 209.151 334.597 216.259 341.722 220.647C348.847 225.035 360.4 225.023 367.525 220.647C374.65 216.271 374.662 209.151 367.525 204.763C360.389 200.376 348.847 200.376 341.722 204.763Z" fill="#407BFF"/>
<path opacity="0.3" d="M341.722 204.763C334.597 209.151 334.597 216.259 341.722 220.647C348.847 225.035 360.4 225.023 367.525 220.647C374.65 216.271 374.662 209.151 367.525 204.763C360.389 200.376 348.847 200.376 341.722 204.763Z" fill="white"/>
<path d="M315.086 363.578L241.881 408.628V361.213L315.086 316.175V363.578Z" fill="#407BFF"/>
<path opacity="0.3" d="M315.086 363.578L241.881 408.628V361.213L315.086 316.175V363.578Z" fill="black"/>
<path d="M168.677 363.578L241.881 408.628V361.213L168.677 316.175V363.578Z" fill="#407BFF"/>
<path opacity="0.4" d="M168.677 363.578L241.881 408.628V361.213L168.677 316.175V363.578Z" fill="black"/>
<path d="M315.086 316.175L241.881 271.137L168.677 316.175L241.881 361.213L315.086 316.175Z" fill="#407BFF"/>
<path opacity="0.55" d="M315.086 316.175L241.881 271.137L168.677 316.175L241.881 361.213L315.086 316.175Z" fill="black"/>
<path d="M260.127 288.996C260.127 286.122 258.351 283.248 254.789 281.06C247.664 276.672 236.11 276.672 228.974 281.06C225.411 283.248 223.636 286.122 223.636 288.996V296.672C223.636 299.546 225.411 302.42 228.974 304.608C236.099 308.996 247.664 308.996 254.789 304.608C258.351 302.42 260.127 299.546 260.127 296.672V288.996Z" fill="#407BFF"/>
<path opacity="0.3" d="M254.789 281.06C258.351 283.248 260.127 286.122 260.127 288.996V296.672C260.127 299.546 258.351 302.42 254.789 304.608C250.829 306.85 246.398 307.982 241.915 307.896V277.831C246.394 277.722 250.825 278.833 254.789 281.06Z" fill="black"/>
<path opacity="0.4" d="M228.974 281.06C225.411 283.248 223.636 286.122 223.636 288.996V296.672C223.636 299.546 225.411 302.42 228.974 304.608C232.954 306.862 237.409 307.994 241.915 307.896V277.831C237.413 277.709 232.957 278.821 228.974 281.06V281.06Z" fill="black"/>
<path d="M228.974 281.06C221.849 285.436 221.849 292.544 228.974 296.932C236.099 301.32 247.663 301.32 254.788 296.932C261.913 292.544 261.913 285.436 254.788 281.06C247.663 276.684 236.11 276.649 228.974 281.06Z" fill="#407BFF"/>
<path opacity="0.3" d="M228.974 281.06C221.849 285.436 221.849 292.544 228.974 296.932C236.099 301.32 247.663 301.32 254.788 296.932C261.913 292.544 261.913 285.436 254.788 281.06C247.663 276.684 236.11 276.649 228.974 281.06Z" fill="white"/>
<path d="M260.127 332.922C260.127 330.06 258.351 327.186 254.789 324.986C247.664 320.598 236.11 320.598 228.974 324.986C225.411 327.186 223.636 330.048 223.636 332.922V340.598C223.636 343.472 225.411 346.346 228.974 348.534C236.099 352.922 247.664 352.922 254.789 348.534C258.351 346.346 260.127 343.472 260.127 340.598V332.922Z" fill="#407BFF"/>
<path opacity="0.3" d="M254.789 324.986C258.351 327.186 260.127 330.048 260.127 332.922V340.598C260.127 343.472 258.351 346.346 254.789 348.534C250.831 350.785 246.4 351.921 241.915 351.834V321.698C246.398 321.612 250.829 322.744 254.789 324.986Z" fill="black"/>
<path opacity="0.4" d="M228.974 324.986C225.411 327.186 223.636 330.048 223.636 332.922V340.598C223.636 343.472 225.411 346.346 228.974 348.534C232.951 350.797 237.407 351.933 241.915 351.834V321.698C237.409 321.6 232.954 322.732 228.974 324.986V324.986Z" fill="black"/>
<path d="M228.974 324.986C221.849 329.374 221.849 336.482 228.974 340.87C236.099 345.258 247.663 345.246 254.788 340.87C261.913 336.494 261.913 329.374 254.788 324.986C247.663 320.598 236.11 320.598 228.974 324.986Z" fill="#407BFF"/>
<path opacity="0.3" d="M228.974 324.986C221.849 329.374 221.849 336.482 228.974 340.87C236.099 345.258 247.663 345.246 254.788 340.87C261.913 336.494 261.913 329.374 254.788 324.986C247.663 320.598 236.11 320.598 228.974 324.986Z" fill="white"/>
<path d="M224.435 310.947C224.435 308.073 222.659 305.199 219.097 303.011C211.971 298.624 200.418 298.624 193.282 303.011C189.719 305.199 187.944 308.073 187.944 310.947V318.623C187.944 321.497 189.719 324.371 193.282 326.559C200.407 330.947 211.971 330.947 219.097 326.559C222.659 324.371 224.435 321.497 224.435 318.623V310.947Z" fill="#407BFF"/>
<path opacity="0.3" d="M219.097 303.011C222.659 305.199 224.435 308.073 224.435 310.947V318.623C224.435 321.497 222.659 324.371 219.097 326.559C215.131 328.821 210.687 329.961 206.189 329.871V299.723C210.684 299.632 215.127 300.763 219.097 303.011V303.011Z" fill="black"/>
<path opacity="0.4" d="M193.282 303.011C189.719 305.199 187.944 308.073 187.944 310.947V318.623C187.944 321.497 189.719 324.371 193.282 326.559C197.248 328.821 201.692 329.961 206.189 329.871V299.723C201.695 299.633 197.252 300.765 193.282 303.011V303.011Z" fill="black"/>
<path d="M193.282 303.011C186.157 307.399 186.157 314.507 193.282 318.883C200.407 323.259 211.971 323.271 219.096 318.883C226.222 314.496 226.222 307.399 219.096 303.011C211.971 298.624 200.418 298.624 193.282 303.011Z" fill="#407BFF"/>
<path opacity="0.3" d="M193.282 303.011C186.157 307.399 186.157 314.507 193.282 318.883C200.407 323.259 211.971 323.271 219.096 318.883C226.222 314.496 226.222 307.399 219.096 303.011C211.971 298.624 200.418 298.624 193.282 303.011Z" fill="white"/>
<path d="M295.819 310.947C295.819 308.073 294.043 305.211 290.469 303.011C283.344 298.624 271.791 298.624 264.666 303.011C261.103 305.199 259.328 308.073 259.328 310.947V318.623C259.328 321.497 261.103 324.371 264.666 326.559C271.791 330.947 283.344 330.947 290.469 326.559C294.043 324.371 295.819 321.497 295.819 318.623V310.947Z" fill="#407BFF"/>
<path opacity="0.3" d="M290.47 303.023C294.032 305.211 295.819 308.085 295.819 310.959V318.635C295.819 321.509 294.043 324.383 290.481 326.571C286.513 328.827 282.07 329.963 277.573 329.871V299.735C282.065 299.643 286.504 300.775 290.47 303.023Z" fill="black"/>
<path opacity="0.4" d="M264.666 303.023C261.103 305.211 259.328 308.085 259.328 310.959V318.635C259.328 321.509 261.103 324.383 264.666 326.571C268.633 328.829 273.077 329.965 277.573 329.871V299.735C273.078 299.643 268.636 300.775 264.666 303.023Z" fill="black"/>
<path d="M264.666 303.023C257.541 307.411 257.541 314.519 264.666 318.907C271.791 323.295 283.345 323.283 290.47 318.907C297.595 314.531 297.606 307.411 290.47 303.023C283.333 298.635 271.791 298.635 264.666 303.023Z" fill="#407BFF"/>
<path opacity="0.3" d="M264.666 303.023C257.541 307.411 257.541 314.519 264.666 318.907C271.791 323.295 283.345 323.283 290.47 318.907C297.595 314.531 297.606 307.411 290.47 303.023C283.333 298.635 271.791 298.635 264.666 303.023Z" fill="white"/>
<path d="M315.086 312.733L241.881 357.771V310.368L315.086 265.33V312.733Z" fill="#407BFF"/>
<path opacity="0.1" d="M315.086 312.733L241.881 357.771V310.368L315.086 265.33V312.733Z" fill="black"/>
<path d="M168.677 312.733L241.881 357.771V310.368L168.677 265.33V312.733Z" fill="#407BFF"/>
<path opacity="0.2" d="M168.677 312.733L241.881 357.771V310.368L168.677 265.33V312.733Z" fill="black"/>
<path d="M315.086 265.33L241.881 220.281L168.677 265.33L241.881 310.368L315.086 265.33Z" fill="#407BFF"/>
<path d="M260.127 238.14C260.127 235.266 258.351 232.403 254.789 230.204C247.664 225.816 236.11 225.816 228.974 230.204C225.411 232.403 223.636 235.266 223.636 238.14V245.815C223.636 248.689 225.411 251.563 228.974 253.751C236.099 258.139 247.664 258.139 254.789 253.751C258.351 251.563 260.127 248.689 260.127 245.815V238.14Z" fill="#407BFF"/>
<path opacity="0.1" d="M254.789 230.204C258.351 232.403 260.127 235.266 260.127 238.14V245.815C260.127 248.689 258.351 251.563 254.789 253.751C250.83 255.999 246.399 257.131 241.915 257.039V226.975C246.393 226.871 250.823 227.982 254.789 230.204V230.204Z" fill="black"/>
<path opacity="0.2" d="M228.974 230.204C225.411 232.403 223.636 235.266 223.636 238.14V245.815C223.636 248.689 225.411 251.563 228.974 253.751C232.952 256.011 237.408 257.143 241.915 257.039V226.975C237.413 226.859 232.959 227.97 228.974 230.204Z" fill="black"/>
<path d="M228.974 230.204C221.849 234.592 221.849 241.7 228.974 246.087C236.099 250.475 247.663 250.464 254.788 246.087C261.913 241.711 261.913 234.592 254.788 230.204C247.663 225.816 236.11 225.792 228.974 230.204Z" fill="#407BFF"/>
<path opacity="0.3" d="M228.974 230.204C221.849 234.592 221.849 241.7 228.974 246.087C236.099 250.475 247.663 250.464 254.788 246.087C261.913 241.711 261.913 234.592 254.788 230.204C247.663 225.816 236.11 225.792 228.974 230.204Z" fill="white"/>
<path d="M260.127 282.077C260.127 279.203 258.351 276.329 254.789 274.141C247.664 269.754 236.11 269.754 228.974 274.141C225.411 276.329 223.636 279.203 223.636 282.077V289.753C223.636 292.627 225.411 295.501 228.974 297.689C236.099 302.077 247.664 302.077 254.789 297.689C258.351 295.501 260.127 292.627 260.127 289.753V282.077Z" fill="#407BFF"/>
<path opacity="0.1" d="M254.789 274.141C258.351 276.329 260.127 279.203 260.127 282.077V289.753C260.127 292.627 258.351 295.501 254.789 297.689C250.829 299.932 246.398 301.063 241.915 300.977V270.853C246.399 270.762 250.83 271.894 254.789 274.141V274.141Z" fill="black"/>
<path opacity="0.2" d="M228.974 274.141C225.411 276.329 223.636 279.203 223.636 282.077V289.753C223.636 292.627 225.411 295.501 228.974 297.689C232.954 299.943 237.409 301.075 241.915 300.977V270.854C237.408 270.75 232.952 271.882 228.974 274.141V274.141Z" fill="black"/>
<path d="M228.974 274.141C221.849 278.529 221.849 285.637 228.974 290.013C236.099 294.389 247.663 294.401 254.788 290.013C261.913 285.626 261.913 278.529 254.788 274.141C247.663 269.754 236.11 269.754 228.974 274.141Z" fill="#407BFF"/>
<path opacity="0.3" d="M228.974 274.141C221.849 278.529 221.849 285.637 228.974 290.013C236.099 294.389 247.663 294.401 254.788 290.013C261.913 285.626 261.913 278.529 254.788 274.141C247.663 269.754 236.11 269.754 228.974 274.141Z" fill="white"/>
<path d="M224.435 260.091C224.435 257.217 222.659 254.343 219.097 252.155C211.971 247.767 200.418 247.767 193.282 252.155C189.719 254.343 187.944 257.217 187.944 260.091V267.767C187.944 270.641 189.719 273.503 193.282 275.703C200.407 280.079 211.971 280.09 219.097 275.703C222.659 273.503 224.435 270.629 224.435 267.767V260.091Z" fill="#407BFF"/>
<path opacity="0.1" d="M219.097 252.167C222.659 254.355 224.435 257.229 224.435 260.103V267.778C224.435 270.652 222.659 273.515 219.097 275.714C215.128 277.967 210.685 279.102 206.189 279.014V248.867C210.686 248.773 215.129 249.909 219.097 252.167V252.167Z" fill="black"/>
<path opacity="0.2" d="M193.282 252.167C189.719 254.355 187.944 257.229 187.944 260.103V267.778C187.944 270.652 189.719 273.515 193.282 275.714C197.251 277.967 201.693 279.102 206.189 279.014V248.867C201.693 248.774 197.249 249.91 193.282 252.167V252.167Z" fill="black"/>
<path d="M193.282 252.167C186.157 256.543 186.157 263.651 193.282 268.039C200.407 272.426 211.971 272.426 219.096 268.039C226.222 263.651 226.222 256.543 219.096 252.167C211.971 247.791 200.418 247.779 193.282 252.167Z" fill="#407BFF"/>
<path opacity="0.3" d="M193.282 252.167C186.157 256.543 186.157 263.651 193.282 268.039C200.407 272.426 211.971 272.426 219.096 268.039C226.222 263.651 226.222 256.543 219.096 252.167C211.971 247.791 200.418 247.779 193.282 252.167Z" fill="white"/>
<path d="M295.819 260.091C295.819 257.217 294.043 254.343 290.469 252.155C283.344 247.767 271.791 247.767 264.666 252.155C261.103 254.343 259.328 257.217 259.328 260.091V267.767C259.328 270.641 261.103 273.515 264.666 275.703C271.791 280.09 283.344 280.09 290.469 275.703C294.043 273.515 295.819 270.641 295.819 267.767V260.091Z" fill="#407BFF"/>
<path opacity="0.1" d="M290.47 252.178C294.032 254.366 295.819 257.24 295.819 260.114V267.79C295.819 270.664 294.043 273.538 290.481 275.726C286.51 277.973 282.068 279.105 277.573 279.014V248.89C282.065 248.793 286.506 249.925 290.47 252.178V252.178Z" fill="black"/>
<path opacity="0.2" d="M264.666 252.178C261.103 254.366 259.328 257.24 259.328 260.114V267.79C259.328 270.664 261.103 273.538 264.666 275.726C268.636 277.974 273.078 279.106 277.573 279.014V248.891C273.078 248.793 268.634 249.925 264.666 252.178Z" fill="black"/>
<path d="M264.666 252.178C257.541 256.554 257.541 263.663 264.666 268.05C271.791 272.438 283.345 272.438 290.47 268.05C297.595 263.663 297.606 256.554 290.47 252.178C283.333 247.802 271.791 247.791 264.666 252.178Z" fill="#407BFF"/>
<path opacity="0.3" d="M264.666 252.178C257.541 256.554 257.541 263.663 264.666 268.05C271.791 272.438 283.345 272.438 290.47 268.05C297.595 263.663 297.606 256.554 290.47 252.178C283.333 247.802 271.791 247.791 264.666 252.178Z" fill="white"/>
<path d="M238.03 410.993L164.826 456.031V408.628L238.03 363.578V410.993Z" fill="#37474F"/>
<path d="M91.6213 410.993L164.826 456.031V408.628L91.6213 363.578V410.993Z" fill="#263238"/>
<path d="M238.03 363.578L164.826 318.54L91.6213 363.578L164.826 408.628L238.03 363.578Z" fill="#455A64"/>
<path d="M177.733 372.448C181.296 374.637 183.071 377.51 183.071 380.384V388.06C183.071 390.934 181.296 393.808 177.733 395.996C173.763 398.244 169.321 399.376 164.826 399.284V369.113C169.325 369.03 173.769 370.178 177.733 372.448V372.448Z" fill="#37474F"/>
<path d="M151.918 372.448C148.356 374.637 146.58 377.51 146.58 380.384V388.06C146.58 390.934 148.356 393.808 151.918 395.996C155.888 398.244 160.331 399.376 164.826 399.284V369.113C160.326 369.03 155.882 370.178 151.918 372.448V372.448Z" fill="#263238"/>
<path d="M151.918 372.448C144.793 376.825 144.793 383.944 151.918 388.321C159.043 392.697 170.608 392.708 177.733 388.321C184.858 383.933 184.858 376.836 177.733 372.448C170.608 368.061 159.055 368.013 151.918 372.448Z" fill="#455A64"/>
<path opacity="0.07" d="M151.918 372.448C144.793 376.825 144.793 383.944 151.918 388.321C159.043 392.697 170.608 392.708 177.733 388.321C184.858 383.933 184.858 376.836 177.733 372.448C170.608 368.061 159.055 368.013 151.918 372.448Z" fill="white"/>
<path d="M177.733 328.463C181.296 330.651 183.071 333.525 183.071 336.399V344.063C183.071 346.937 181.296 349.811 177.733 351.999C173.765 354.253 169.321 355.385 164.826 355.287V325.14C169.323 325.059 173.766 326.203 177.733 328.463V328.463Z" fill="#37474F"/>
<path d="M151.918 328.463C148.356 330.651 146.58 333.525 146.58 336.399V344.063C146.58 346.937 148.356 349.811 151.918 351.999C155.886 354.253 160.33 355.385 164.826 355.287V325.14C160.328 325.059 155.885 326.203 151.918 328.463V328.463Z" fill="#263238"/>
<path d="M151.918 328.463C144.793 332.851 144.793 339.959 151.918 344.347C159.043 348.735 170.608 348.723 177.733 344.347C184.858 339.971 184.858 332.851 177.733 328.463C170.608 324.076 159.055 324.076 151.918 328.463Z" fill="#455A64"/>
<path opacity="0.07" d="M151.918 328.463C144.793 332.851 144.793 339.959 151.918 344.347C159.043 348.735 170.608 348.723 177.733 344.347C184.858 339.971 184.858 332.851 177.733 328.463C170.608 324.076 159.055 324.076 151.918 328.463Z" fill="white"/>
<path d="M213.414 350.438C216.977 352.626 218.764 355.5 218.764 358.374V366.05C218.764 368.924 216.988 371.798 213.425 373.986C209.455 376.233 205.013 377.364 200.518 377.274V347.15C205.01 347.052 209.45 348.185 213.414 350.438V350.438Z" fill="#37474F"/>
<path d="M187.611 350.438C184.048 352.626 182.272 355.5 182.272 358.374V366.05C182.272 368.924 184.048 371.798 187.611 373.986C191.58 376.234 196.023 377.366 200.518 377.274V347.15C196.022 347.053 191.579 348.185 187.611 350.438Z" fill="#263238"/>
<path d="M187.611 350.438C180.486 354.814 180.486 361.922 187.611 366.31C194.736 370.698 206.289 370.698 213.414 366.31C220.539 361.922 220.55 354.814 213.414 350.438C206.278 346.062 194.736 346.05 187.611 350.438Z" fill="#455A64"/>
<path opacity="0.07" d="M187.611 350.438C180.486 354.814 180.486 361.922 187.611 366.31C194.736 370.698 206.289 370.698 213.414 366.31C220.539 361.922 220.55 354.814 213.414 350.438C206.278 346.062 194.736 346.05 187.611 350.438Z" fill="white"/>
<path d="M142.03 350.415C145.592 352.614 147.368 355.488 147.368 358.362V366.038C147.368 368.9 145.592 371.774 142.03 373.974C138.06 376.222 133.617 377.354 129.123 377.262V347.127C133.617 347.035 138.06 348.166 142.03 350.415Z" fill="#37474F"/>
<path d="M116.226 350.415C112.664 352.614 110.888 355.488 110.888 358.362V366.038C110.888 368.9 112.664 371.774 116.226 373.974C120.196 376.222 124.639 377.354 129.134 377.262V347.127C124.639 347.036 120.197 348.168 116.226 350.415V350.415Z" fill="#263238"/>
<path d="M116.226 350.415C109.101 354.802 109.101 361.91 116.226 366.298C123.351 370.686 134.916 370.686 142.041 366.298C149.166 361.91 149.166 354.802 142.041 350.426C134.916 346.05 123.362 346.039 116.226 350.415Z" fill="#455A64"/>
<path opacity="0.07" d="M116.226 350.415C109.101 354.802 109.101 361.91 116.226 366.298C123.351 370.686 134.916 370.686 142.041 366.298C149.166 361.91 149.166 354.802 142.041 350.426C134.916 346.05 123.362 346.039 116.226 350.415Z" fill="white"/>
<path d="M392.141 214.485L318.937 259.535V212.12L392.141 167.082V214.485Z" fill="#37474F"/>
<path d="M245.732 214.485L318.937 259.535V212.12L245.732 167.082V214.485Z" fill="#263238"/>
<path d="M392.141 167.082L318.937 122.045L245.732 167.082L318.937 212.12L392.141 167.082Z" fill="#455A64"/>
<path d="M331.811 175.893C335.373 178.093 337.149 180.967 337.149 183.829V191.493C337.149 194.367 335.373 197.241 331.811 199.441C327.841 201.689 323.398 202.821 318.904 202.729V172.57C323.401 172.489 327.844 173.633 331.811 175.893V175.893Z" fill="#37474F"/>
<path d="M306.03 175.893C302.467 178.093 300.691 180.967 300.691 183.829V191.493C300.691 194.367 302.467 197.241 306.03 199.441C310 201.689 314.442 202.821 318.937 202.729V172.57C314.439 172.489 309.997 173.633 306.03 175.893V175.893Z" fill="#263238"/>
<path d="M306.03 175.893C298.905 180.281 298.905 187.389 306.03 191.777C313.155 196.165 324.708 196.153 331.844 191.777C338.981 187.401 338.969 180.281 331.844 175.893C324.719 171.506 313.155 171.517 306.03 175.893Z" fill="#455A64"/>
<path opacity="0.07" d="M306.03 175.893C298.905 180.281 298.905 187.389 306.03 191.777C313.155 196.165 324.708 196.153 331.844 191.777C338.981 187.401 338.969 180.281 331.844 175.893C324.719 171.506 313.155 171.517 306.03 175.893Z" fill="white"/>
<path d="M331.811 131.968C335.373 134.156 337.149 137.03 337.149 139.904V147.579C337.149 150.453 335.373 153.327 331.811 155.515C327.841 157.764 323.398 158.895 318.904 158.803V128.68C323.399 128.582 327.843 129.714 331.811 131.968V131.968Z" fill="#37474F"/>
<path d="M306.03 131.968C302.467 134.156 300.691 137.03 300.691 139.904V147.579C300.691 150.453 302.467 153.327 306.03 155.515C310 157.764 314.442 158.895 318.937 158.803V128.68C314.442 128.582 309.998 129.714 306.03 131.968V131.968Z" fill="#263238"/>
<path d="M306.03 131.968C298.905 136.344 298.905 143.452 306.03 147.84C313.155 152.227 324.708 152.227 331.844 147.84C338.981 143.452 338.969 136.344 331.844 131.968C324.719 127.591 313.155 127.627 306.03 131.968Z" fill="#455A64"/>
<path opacity="0.07" d="M306.03 131.968C298.905 136.344 298.905 143.452 306.03 147.84C313.155 152.227 324.708 152.227 331.844 147.84C338.981 143.452 338.969 136.344 331.844 131.968C324.719 127.591 313.155 127.627 306.03 131.968Z" fill="white"/>
<path d="M367.525 153.931C371.088 156.13 372.875 158.993 372.875 161.866V169.542C372.875 172.416 371.088 175.29 367.525 177.478C363.561 179.732 359.121 180.864 354.629 180.766V150.643C359.12 150.551 363.559 151.682 367.525 153.931V153.931Z" fill="#37474F"/>
<path d="M341.722 153.931C338.159 156.13 336.383 158.993 336.383 161.867V169.542C336.383 172.416 338.159 175.29 341.722 177.478C345.69 179.732 350.133 180.864 354.629 180.766V150.643C350.134 150.551 345.692 151.682 341.722 153.931Z" fill="#263238"/>
<path d="M341.722 153.931C334.597 158.318 334.597 165.426 341.722 169.814C348.847 174.202 360.4 174.19 367.525 169.814C374.65 165.438 374.662 158.318 367.525 153.931C360.389 149.543 348.847 149.543 341.722 153.931Z" fill="#455A64"/>
<path opacity="0.07" d="M341.722 153.931C334.597 158.318 334.597 165.426 341.722 169.814C348.847 174.202 360.4 174.19 367.525 169.814C374.65 165.438 374.662 158.318 367.525 153.931C360.389 149.543 348.847 149.543 341.722 153.931Z" fill="white"/>
<path d="M296.152 153.919C299.715 156.107 301.49 158.981 301.49 161.855V169.53C301.49 172.404 299.715 175.278 296.152 177.466C292.184 179.72 287.74 180.852 283.245 180.754V150.631C287.74 150.539 292.182 151.67 296.152 153.919V153.919Z" fill="#37474F"/>
<path d="M270.338 153.919C266.775 156.107 264.999 158.981 264.999 161.855V169.53C264.999 172.404 266.775 175.278 270.338 177.466C274.306 179.72 278.749 180.852 283.245 180.754V150.631C278.75 150.539 274.307 151.67 270.338 153.919V153.919Z" fill="#263238"/>
<path d="M270.337 153.919C263.212 158.307 263.212 165.415 270.337 169.791C277.463 174.167 289.027 174.179 296.152 169.791C303.277 165.403 303.277 158.295 296.152 153.907C289.027 149.519 277.429 149.531 270.337 153.919Z" fill="#455A64"/>
<path opacity="0.07" d="M270.337 153.919C263.212 158.307 263.212 165.415 270.337 169.791C277.463 174.167 289.027 174.179 296.152 169.791C303.277 165.403 303.277 158.295 296.152 153.907C289.027 149.519 277.429 149.531 270.337 153.919Z" fill="white"/>
<path d="M99.8561 48.4562H95.3502C92.4587 48.4609 89.5948 47.858 86.9222 46.682C84.2495 45.5061 81.8207 43.7801 79.7746 41.6029C77.7284 39.4258 76.1052 36.84 74.9977 33.9937C73.8901 31.1473 73.3201 28.0962 73.3201 25.0148V25.0148C73.3186 21.8066 73.9103 18.6294 75.0614 15.6649C76.2125 12.7004 77.9004 10.0067 80.0287 7.73752C82.157 5.46838 84.6839 3.66833 87.4652 2.44022C90.2464 1.21211 93.2275 0.580001 96.2381 0.580002H98.9128C104.992 0.583138 110.821 3.1589 115.119 7.74098C119.417 12.3231 121.831 18.5364 121.831 25.0148V25.0148C121.831 31.2278 119.516 37.1866 115.396 41.582C111.275 45.9775 105.686 48.4499 99.8561 48.4562V48.4562Z" fill="#263238"/>
<path d="M70.2902 38.344C74.108 34.4411 78.5585 36.6764 82.4984 41.0288C86.4383 45.3811 88.3361 50.2184 84.5182 54.1214C80.7004 58.0243 74.4299 57.6695 70.5011 53.3053C66.5723 48.9411 66.4724 42.247 70.2902 38.344Z" fill="#263238"/>
<path d="M123.506 72.8437C128.823 82.4355 135.237 94.0498 138.833 98.0473C145.659 101.43 161.263 107.757 167.533 108.692C168.639 108.835 169.757 108.554 170.685 107.899C173.149 106.173 175.058 105.901 177.666 104.943C179.697 104.186 180.563 103.157 180.996 103.547C181.387 104.038 181.583 104.673 181.541 105.316C181.5 105.959 181.224 106.559 180.774 106.989C179.8 107.977 178.719 108.838 177.555 109.555C180.338 110.287 183.241 110.34 186.045 109.709C191.484 108.195 194.047 110.974 190.374 117.255C189.053 119.514 183.881 123.109 173.382 122.139C169.641 121.911 165.916 121.441 162.228 120.732C152.162 118.449 141.408 115.102 134.483 112.902C131.935 111.83 129.655 110.142 127.824 107.97C116.248 93.9078 110.566 81.4539 105.494 72.347L105.927 57.4685C114.106 57.1373 119.056 64.8131 123.506 72.8437Z" fill="#FFA8A7"/>
<path d="M68.9698 295.809C68.4292 299.03 68.1396 302.294 68.1041 305.566C67.9931 311.48 66.9943 313.585 66.8389 318.446C66.6835 323.993 67.5825 326.074 69.7022 329.197C71.822 332.319 77.3601 335.11 79.6907 329.871C82.0214 324.631 81.7328 321.142 80.9892 315.678C80.2456 310.214 80.1125 306.938 79.6685 302.668C79.269 298.884 78.7918 296.01 78.7918 296.01L68.9698 295.809Z" fill="#263238"/>
<path d="M84.7401 249.257L66.439 248.902C66.7164 261.912 68.6586 283.591 68.9694 295.809C68.9694 298.115 68.9694 313.679 69.7352 318.41C70.956 325.507 78.8691 324.56 79.2908 320.303C79.7125 316.045 78.7692 297.938 78.7692 295.998C78.7026 288.168 82.0987 267.719 83.9521 253.657C84.0742 252.994 84.6513 249.931 84.7401 249.257Z" fill="#FFA8A7"/>
<path d="M111.631 285.685C111.631 285.685 110.688 285.744 110.522 286.56C110.355 287.376 110.3 289.079 109.922 290.688C109.298 293.204 109.076 295.815 109.267 298.411C109.578 300.22 113.474 302.929 116.137 303.414C118.801 303.898 122.563 306.69 124.65 308.783C127.998 311.734 132.143 313.47 136.48 313.739C140.92 313.739 144.027 312.166 145.492 309.623C146.957 307.08 144.149 306.784 139.077 303.272L135.126 300.54C127.08 294.934 124.128 291.929 121.809 286.347L111.631 285.685Z" fill="#263238"/>
<path d="M121.942 282.208C121.809 278.186 124.406 236.768 124.406 236.768L107.026 245.212C110.744 268.867 112.031 282.113 111.598 285.555C111.525 285.88 111.491 286.214 111.498 286.548C111.498 291.149 116.393 293.644 120.188 296.696C121.686 297.878 125.549 301.639 130.066 303.272C132.996 304.336 138.401 304.738 139.089 302.846C134.472 299.085 128.179 294.165 124.494 289.836C122.741 287.825 122.053 286.241 121.942 282.208Z" fill="#FFA8A7"/>
<path d="M73.9416 122.246C67.2826 137.857 67.2826 149.933 68.3924 169.85C69.4024 188.123 71.0116 204.219 71.0116 204.219C70.7564 207.46 66.5723 213.788 65.9841 228.122C65.773 238.271 66.0619 248.425 66.8498 258.541C66.8498 258.541 76.3388 264.147 83.3641 258.541C83.3641 258.541 90.134 224.077 92.1206 207.306C93.852 192.664 98.7019 162.257 98.7019 162.257L106.626 207.2C105.249 211.915 104.25 216.746 103.641 221.641C102.742 231.505 107.914 250.877 107.914 250.877C107.914 250.877 117.724 254 123.718 248.335C123.718 248.335 125.937 216.839 126.792 204.965C127.902 189.045 125.371 145.521 121.953 123.192L73.9416 122.246Z" fill="#37474F"/>
<path d="M98.6797 162.21L100.711 147.319C100.711 147.319 112.519 145.64 117.869 140.223C116.337 142.779 114.296 144.944 111.891 146.565C109.485 148.186 106.775 149.223 103.951 149.602L101.865 163.108L105.483 202.138L98.6797 162.21Z" fill="#263238"/>
<path d="M88.2252 57.9416C84.6959 58.2018 80.1234 58.9705 80.1234 58.9705C76.4166 61.1822 74.5743 65.2034 74.5743 69.8988C74.5743 75.0318 71.8885 77.9057 73.3534 86.3621L79.1357 101.737C78.8582 105.581 74.5299 114.617 72.0549 127.142C86.1942 135.551 104.24 133.588 114.228 129.034C117.23 127.805 119.899 125.801 121.997 123.204C120.355 113.978 119.778 114.097 118.868 105.664C118.421 102.26 118.243 98.822 118.335 95.3862C122.863 89.177 125.282 83.0978 122.996 77.5154C118.335 66.1851 109.623 57.0663 105.139 57.4093L88.2252 57.9416Z" fill="#407BFF"/>
<path opacity="0.7" d="M88.2252 57.9416C84.6959 58.2018 80.1234 58.9705 80.1234 58.9705C76.4166 61.1822 74.5743 65.2034 74.5743 69.8988C74.5743 75.0318 71.8885 77.9057 73.3534 86.3621L79.1357 101.737C78.8582 105.581 74.5299 114.617 72.0549 127.142C86.1942 135.551 104.24 133.588 114.228 129.034C117.23 127.805 119.899 125.801 121.997 123.204C120.355 113.978 119.778 114.097 118.868 105.664C118.421 102.26 118.243 98.822 118.335 95.3862C122.863 89.177 125.282 83.0978 122.996 77.5154C118.335 66.1851 109.623 57.0663 105.139 57.4093L88.2252 57.9416Z" fill="white"/>
<path opacity="0.1" d="M108.391 94.7712C108.391 94.7712 101.931 100.117 94.5622 97.3259C92.4932 96.6272 90.6281 95.372 89.1468 93.6816C87.6655 91.9911 86.618 89.9224 86.1053 87.675C86.1053 87.675 85.3284 96.6517 94.6288 99.715C97.117 100.57 99.7971 100.551 102.275 99.661C104.752 98.771 106.896 97.057 108.391 94.7712V94.7712Z" fill="black"/>
<path d="M112.83 11.5674C115.394 13.1877 118.568 20.0475 118.257 34.4411C117.991 46.6467 114.273 49.6626 112.408 50.526C110.544 51.3893 106.959 50.8689 103.463 50.2539V57.5749C103.463 57.5749 107.492 62.0692 107.181 65.4281C106.87 68.787 100.866 69.1655 96.3379 65.8776C93.5954 63.8799 91.1489 61.4561 89.0796 58.6867V40.532C89.0796 40.532 87.1707 42.6964 83.7857 40.2127C83.055 39.7188 82.429 39.068 81.9475 38.3018C81.466 37.5356 81.1396 36.6709 80.9893 35.7629C80.8389 34.8548 80.8678 33.9233 81.0741 33.0278C81.2804 32.1322 81.6596 31.2924 82.1876 30.5618C83.6525 28.7167 87.3927 28.5866 89.1906 31.4488C89.1906 31.4488 93.8852 31.0112 101.31 26.718C104.07 25.1235 106.509 22.9647 108.485 20.365C110.462 17.7653 111.939 14.7758 112.83 11.5674Z" fill="#FFA8A7"/>
<path d="M114.284 11.5556C114.284 11.5556 117.236 19.0185 109.201 25.1686C109.201 25.1686 113.407 19.8109 111.887 13.0813C110.633 7.47522 114.018 8.94178 114.284 11.5556Z" fill="#263238"/>
<path d="M104.185 31.3778C104.206 31.787 104.074 32.1884 103.818 32.4943C103.562 32.8002 103.203 32.9856 102.819 33.01C102.432 33.0196 102.056 32.8662 101.773 32.5829C101.491 32.2996 101.325 31.9092 101.31 31.4961C101.286 31.2865 101.303 31.0737 101.359 30.8712C101.415 30.6687 101.51 30.4808 101.638 30.3191C101.765 30.1575 101.923 30.0256 102.1 29.9316C102.278 29.8377 102.472 29.7837 102.67 29.7732C102.868 29.7626 103.066 29.7956 103.251 29.8701C103.437 29.9446 103.606 30.059 103.748 30.2063C103.89 30.3535 104.002 30.5304 104.077 30.7258C104.152 30.9213 104.189 31.1312 104.185 31.3424V31.3778Z" fill="#263238"/>
<path d="M105.849 41.7266L109.179 42.9093C109.119 43.1536 109.014 43.3823 108.868 43.581C108.722 43.7798 108.539 43.9442 108.33 44.0641C108.122 44.1841 107.893 44.2568 107.657 44.2779C107.421 44.299 107.183 44.2679 106.959 44.1866C106.509 44.0126 106.141 43.6576 105.933 43.1978C105.726 42.738 105.696 42.2098 105.849 41.7266Z" fill="#F28F8F"/>
<path d="M116.948 26.6706L114.04 24.5181C114.161 24.3083 114.322 24.1271 114.511 23.9857C114.701 23.8443 114.915 23.7457 115.142 23.6958C115.368 23.646 115.602 23.646 115.829 23.6959C116.055 23.7458 116.27 23.8445 116.459 23.9859C116.846 24.2835 117.111 24.7267 117.202 25.2253C117.292 25.724 117.202 26.2408 116.948 26.6706V26.6706Z" fill="#263238"/>
<path d="M116.282 30.2779C116.283 30.5789 116.202 30.8738 116.048 31.1261C115.894 31.3783 115.674 31.5769 115.415 31.6971C115.156 31.8173 114.87 31.8539 114.592 31.8023C114.313 31.7507 114.055 31.6132 113.85 31.4069C113.644 31.2006 113.5 30.9345 113.435 30.6416C113.37 30.3487 113.387 30.0419 113.484 29.7593C113.581 29.4766 113.754 29.2305 113.981 29.0515C114.208 28.8725 114.479 28.7684 114.761 28.7522C115.152 28.7426 115.53 28.8973 115.815 29.1828C116.099 29.4683 116.267 29.8617 116.282 30.2779Z" fill="#263238"/>
<path d="M108.291 29.3909L108.513 38.6279L113.074 37.1258L108.291 29.3909Z" fill="#F28F8F"/>
<path d="M103.463 50.2539C99.7783 49.7335 92.1981 47.4154 91.0217 44.2221C91.4935 45.8393 92.4192 47.2635 93.6742 48.3024C95.8939 50.3604 103.463 52.6903 103.463 52.6903V50.2539Z" fill="#F28F8F"/>
<path d="M228.363 177.94L155.159 222.989V175.574L228.363 130.536V177.94Z" fill="#407BFF"/>
<path opacity="0.3" d="M228.363 177.94L155.159 222.989V175.574L228.363 130.536V177.94Z" fill="black"/>
<path d="M81.9546 177.94L155.159 222.989V175.574L81.9546 130.536V177.94Z" fill="#407BFF"/>
<path opacity="0.4" d="M81.9546 177.94L155.159 222.989V175.574L81.9546 130.536V177.94Z" fill="black"/>
<path opacity="0.1" d="M95.2282 159.288L91.2994 155.101C90.7444 154.522 90.134 154.001 89.6013 153.375C89.4016 153.15 88.3805 151.884 88.7024 151.541C88.74 151.511 88.7834 151.491 88.8294 151.48C88.8754 151.47 88.923 151.471 88.9687 151.482C90.7112 151.672 92.9197 151.589 94.1405 150.028C94.3523 149.768 94.4976 149.454 94.5623 149.117C94.5988 148.869 94.5474 148.616 94.418 148.407C94.1627 148.005 93.4968 148.005 93.0862 147.875C92.5647 147.706 92.0622 147.476 91.5879 147.189C90.7712 146.724 89.9214 146.329 89.0464 146.006L85.5615 145.214C85.0577 144.788 84.4789 144.475 83.8593 144.292C83.2397 144.109 82.5921 144.061 81.9546 144.149V165.332C83.3953 166.19 84.9929 166.706 86.6381 166.846C88.8125 167.114 91.0141 166.733 92.9974 165.746C94.6067 164.894 97.1593 162.694 96.1382 160.459C95.8961 160.019 95.5888 159.624 95.2282 159.288Z" fill="black"/>
<path d="M228.363 130.536L155.159 85.4988L81.9546 130.536L155.159 175.574L228.363 130.536Z" fill="#407BFF"/>
<path opacity="0.15" d="M228.363 130.536L155.159 85.4988L81.9546 130.536L155.159 175.574L228.363 130.536Z" fill="black"/>
<path d="M173.405 103.358C173.405 100.484 171.629 97.6097 168.055 95.4217C160.93 91.0338 149.377 91.0338 142.252 95.4217C138.689 97.6097 136.913 100.484 136.913 103.358V111.069C136.913 113.943 138.689 116.805 142.252 119.005C149.377 123.381 160.93 123.393 168.055 119.005C171.629 116.805 173.405 113.931 173.405 111.069V103.358Z" fill="#407BFF"/>
<path opacity="0.3" d="M168.055 95.4217C171.618 97.6098 173.405 100.484 173.405 103.358V111.069C173.405 113.943 171.629 116.805 168.055 119.005C164.089 121.253 159.65 122.385 155.159 122.293V92.1456C159.65 92.0447 164.09 93.1727 168.055 95.4217Z" fill="black"/>
<path opacity="0.4" d="M142.252 95.4217C138.689 97.6097 136.913 100.484 136.913 103.358V111.069C136.913 113.943 138.689 116.805 142.252 119.005C146.222 121.253 150.664 122.385 155.159 122.293V92.1456C150.665 92.0448 146.221 93.1727 142.252 95.4217V95.4217Z" fill="black"/>
<path d="M142.252 95.4217C135.127 99.7978 135.127 106.906 142.252 111.294C149.377 115.682 160.93 115.682 168.055 111.294C175.18 106.906 175.192 99.7978 168.055 95.4217C160.919 91.0457 149.377 91.0339 142.252 95.4217Z" fill="#407BFF"/>
<path d="M173.405 147.284C173.405 144.41 171.629 141.548 168.055 139.348C160.93 134.96 149.377 134.96 142.252 139.348C138.689 141.536 136.913 144.41 136.913 147.284V154.959C136.913 157.833 138.689 160.707 142.252 162.895C149.377 167.283 160.93 167.283 168.055 162.895C171.629 160.707 173.405 157.833 173.405 154.959V147.284Z" fill="#407BFF"/>
<path opacity="0.3" d="M168.055 139.348C171.618 141.536 173.405 144.41 173.405 147.284V154.959C173.405 157.833 171.629 160.707 168.055 162.895C164.091 165.149 159.651 166.281 155.159 166.183V136.06C159.65 135.968 164.089 137.099 168.055 139.348V139.348Z" fill="black"/>
<path opacity="0.4" d="M142.252 139.348C138.689 141.536 136.913 144.41 136.913 147.284V154.959C136.913 157.833 138.689 160.707 142.252 162.895C146.22 165.149 150.664 166.281 155.159 166.183V136.06C150.664 135.968 146.222 137.099 142.252 139.348V139.348Z" fill="black"/>
<path d="M142.252 139.348C135.127 143.736 135.127 150.844 142.252 155.231C149.377 159.619 160.93 159.608 168.055 155.231C175.18 150.855 175.192 143.736 168.055 139.348C160.919 134.96 149.377 134.96 142.252 139.348Z" fill="#407BFF"/>
<path d="M137.712 125.262C137.712 122.388 135.937 119.514 132.374 117.326C125.238 112.938 113.685 112.938 106.559 117.326C102.997 119.514 101.221 122.388 101.221 125.262V132.937C101.221 135.811 102.997 138.685 106.559 140.873C113.685 145.261 125.238 145.261 132.374 140.873C135.937 138.685 137.712 135.811 137.712 132.937V125.262Z" fill="#407BFF"/>
<path opacity="0.3" d="M132.374 117.373C135.937 119.561 137.712 122.435 137.712 125.309V132.985C137.712 135.859 135.937 138.733 132.374 140.921C128.402 143.161 123.96 144.284 119.467 144.185V114.085C123.961 113.995 128.404 115.126 132.374 117.373V117.373Z" fill="black"/>
<path opacity="0.4" d="M106.515 117.373C102.952 119.561 101.177 122.435 101.177 125.309V132.985C101.177 135.859 102.952 138.733 106.515 140.921C110.5 143.169 114.959 144.292 119.467 144.185V114.085C114.957 113.985 110.498 115.117 106.515 117.373V117.373Z" fill="black"/>
<path d="M106.515 117.373C99.3899 121.761 99.3899 128.869 106.515 133.245C113.64 137.621 125.193 137.633 132.33 133.245C139.466 128.857 139.455 121.761 132.33 117.373C125.205 112.985 113.684 112.985 106.515 117.373Z" fill="#407BFF"/>
<path d="M209.097 125.321C209.097 122.447 207.31 119.573 203.747 117.385C196.622 112.997 185.069 112.997 177.944 117.385C174.381 119.573 172.594 122.447 172.606 125.321V132.996C172.606 135.87 174.381 138.744 177.944 140.932C185.069 145.32 196.622 145.32 203.747 140.932C207.31 138.744 209.097 135.87 209.097 132.996V125.321Z" fill="#407BFF"/>
<path opacity="0.3" d="M203.747 117.385C207.31 119.573 209.097 122.447 209.097 125.321V132.997C209.097 135.87 207.31 138.744 203.747 140.933C199.783 143.17 195.347 144.29 190.862 144.185V114.097C195.35 114.008 199.784 115.14 203.747 117.385V117.385Z" fill="black"/>
<path opacity="0.4" d="M177.944 117.385C174.381 119.573 172.594 122.447 172.606 125.321V132.996C172.606 135.87 174.381 138.744 177.944 140.932C181.918 143.176 186.366 144.296 190.862 144.185V114.097C186.364 114.003 181.917 115.135 177.944 117.385Z" fill="black"/>
<path d="M177.944 117.385C170.819 121.773 170.819 128.881 177.944 133.269C185.069 137.656 196.622 137.645 203.747 133.269C210.872 128.892 210.872 121.773 203.747 117.385C196.622 112.997 185.069 112.997 177.944 117.385Z" fill="#407BFF"/>
<path d="M50.5242 104.694C54.7083 94.9723 62.1219 79.94 65.629 72.2997C70.7453 61.3005 74.9405 58.9114 81.9546 58.6867C84.7181 61.2413 86.0499 70.1117 81.5773 81.4894C77.8371 88.3255 66.3171 109.319 66.3171 109.319C66.872 111.022 75.8616 134.664 79.5463 140.069C80.2103 141.018 81.1777 141.674 82.2654 141.914C85.1731 142.576 88.9244 145.025 91.3438 146.326C93.2749 147.343 94.5956 147.272 94.5734 147.84C94.4905 148.49 94.1804 149.082 93.705 149.499C93.2296 149.915 92.6241 150.125 92.0097 150.087C90.0802 149.84 88.1701 149.444 86.2941 148.904C88.3981 151.255 90.6488 153.452 93.0307 155.48C97.47 159.111 98.0472 162.919 91.0774 164.539C85.8057 165.722 82.4207 163.191 75.906 154.534C74.0304 152.038 71.7664 148.183 69.469 144.942C63.6868 136.793 60.5904 131.057 57.0722 125.948C47.006 111.542 48.9815 108.278 50.5242 104.694Z" fill="#FFA8A7"/>
</svg>
