<svg width="520" height="535" viewBox="0 0 520 535" fill="none" xmlns="http://www.w3.org/2000/svg">
<path d="M30.6597 58.7824C30.6597 58.7824 4.0676 74.2736 0.246407 112.973C-3.57479 151.672 38.2169 205.891 44.5524 254.855C50.8879 303.819 0.246406 315.575 20.5314 377.511C40.8164 439.447 147.142 453.635 204.105 429.124C261.068 404.613 287.674 342.677 372.508 342.677C457.341 342.677 518.097 302.661 513.054 213.622C508.011 124.584 488.976 97.496 420.606 45.8827C352.237 -5.73061 114.215 -28.9674 30.6597 58.7824Z" fill="#407BFF"/>
<path opacity="0.85" d="M30.6597 58.7824C30.6597 58.7824 4.0676 74.2736 0.246407 112.973C-3.57479 151.672 38.2169 205.891 44.5524 254.855C50.8879 303.819 0.246406 315.575 20.5314 377.511C40.8164 439.447 147.142 453.635 204.105 429.124C261.068 404.613 287.674 342.677 372.508 342.677C457.341 342.677 518.097 302.661 513.054 213.622C508.011 124.584 488.976 97.496 420.606 45.8827C352.237 -5.73061 114.215 -28.9674 30.6597 58.7824Z" fill="white"/>
<path d="M271.111 535C408.569 535 520 529.186 520 522.013C520 514.841 408.569 509.027 271.111 509.027C133.653 509.027 22.2218 514.841 22.2218 522.013C22.2218 529.186 133.653 535 271.111 535Z" fill="#407BFF"/>
<path opacity="0.3" d="M271.111 535C408.569 535 520 529.186 520 522.013C520 514.841 408.569 509.027 271.111 509.027C133.653 509.027 22.2218 514.841 22.2218 522.013C22.2218 529.186 133.653 535 271.111 535Z" fill="white"/>
<path d="M466.347 27.3801H62.3941V299.533H466.347V27.3801Z" fill="white"/>
<path d="M466.347 27.3801H62.3941V299.533H466.347V27.3801Z" fill="#263238"/>
<path opacity="0.8" d="M466.347 27.3801H62.3941V299.533H466.347V27.3801Z" fill="white"/>
<path d="M466.347 27.3801H62.3941V299.533H466.347V27.3801Z" stroke="#263238" stroke-linecap="round" stroke-linejoin="round"/>
<path d="M456.02 57.7255H174.232V291.209H456.02V57.7255Z" fill="white"/>
<path d="M254.036 79.4132H213.182V163.963H254.036V79.4132Z" fill="#407BFF"/>
<path d="M456.403 79.9055H415.549V121.934H456.403V79.9055Z" fill="#407BFF"/>
<path d="M334.807 79.9055H293.953V121.934H334.807V79.9055Z" fill="#407BFF"/>
<path d="M253.908 206.731H173.862V248.76H253.908V206.731Z" fill="#407BFF"/>
<path d="M466.347 27.3801H62.3941V53.831H466.347V27.3801Z" fill="#263238" stroke="#263238" stroke-linecap="round" stroke-linejoin="round"/>
<path d="M456.02 57.7255H174.232V291.209H456.02V57.7255Z" stroke="#263238" stroke-linecap="round" stroke-linejoin="round"/>
<path d="M213.836 81.0637V290.427" stroke="#263238" stroke-linecap="round" stroke-linejoin="round"/>
<path d="M254.193 81.0637V290.427" stroke="#263238" stroke-linecap="round" stroke-linejoin="round"/>
<path d="M294.564 81.0637V290.427" stroke="#263238" stroke-linecap="round" stroke-linejoin="round"/>
<path d="M334.921 81.0637V290.427" stroke="#263238" stroke-linecap="round" stroke-linejoin="round"/>
<path d="M375.292 81.0637V290.427" stroke="#263238" stroke-linecap="round" stroke-linejoin="round"/>
<path d="M415.649 81.0637V290.427" stroke="#263238" stroke-linecap="round" stroke-linejoin="round"/>
<path d="M174.232 80.2964H456.02" stroke="#263238" stroke-linecap="round" stroke-linejoin="round"/>
<path d="M174.232 122.325H456.02" stroke="#263238" stroke-linecap="round" stroke-linejoin="round"/>
<path d="M174.232 164.354H456.02" stroke="#263238" stroke-linecap="round" stroke-linejoin="round"/>
<path d="M174.232 206.383H456.02" stroke="#263238" stroke-linecap="round" stroke-linejoin="round"/>
<path d="M174.232 248.398H456.02" stroke="#263238" stroke-linecap="round" stroke-linejoin="round"/>
<path opacity="0.28" d="M80.2784 74.0999C81.5337 74.0999 82.5513 73.0628 82.5513 71.7834C82.5513 70.5041 81.5337 69.467 80.2784 69.467C79.0232 69.467 78.0056 70.5041 78.0056 71.7834C78.0056 73.0628 79.0232 74.0999 80.2784 74.0999Z" fill="black"/>
<path opacity="0.28" d="M92.7648 74.0999C94.02 74.0999 95.0376 73.0628 95.0376 71.7834C95.0376 70.5041 94.02 69.467 92.7648 69.467C91.5095 69.467 90.4919 70.5041 90.4919 71.7834C90.4919 73.0628 91.5095 74.0999 92.7648 74.0999Z" fill="black"/>
<path opacity="0.28" d="M105.237 74.0999C106.492 74.0999 107.51 73.0628 107.51 71.7834C107.51 70.5041 106.492 69.467 105.237 69.467C103.982 69.467 102.964 70.5041 102.964 71.7834C102.964 73.0628 103.982 74.0999 105.237 74.0999Z" fill="black"/>
<path opacity="0.28" d="M119.996 71.7834C119.999 72.2422 119.868 72.6914 119.62 73.0743C119.372 73.4571 119.018 73.7563 118.603 73.9338C118.188 74.1114 117.73 74.1593 117.289 74.0716C116.847 73.9838 116.441 73.7644 116.121 73.441C115.802 73.1176 115.584 72.7049 115.495 72.2552C115.406 71.8054 115.451 71.3389 115.622 70.9148C115.794 70.4907 116.085 70.128 116.459 69.8729C116.833 69.6177 117.273 69.4815 117.723 69.4814C118.324 69.4814 118.9 69.7235 119.325 70.1548C119.751 70.5861 119.992 71.1716 119.996 71.7834Z" fill="black"/>
<path opacity="0.28" d="M130.195 74.0999C131.451 74.0999 132.468 73.0628 132.468 71.7834C132.468 70.5041 131.451 69.467 130.195 69.467C128.94 69.467 127.923 70.5041 127.923 71.7834C127.923 73.0628 128.94 74.0999 130.195 74.0999Z" fill="black"/>
<path opacity="0.28" d="M142.682 74.0999C143.937 74.0999 144.955 73.0628 144.955 71.7834C144.955 70.5041 143.937 69.467 142.682 69.467C141.427 69.467 140.409 70.5041 140.409 71.7834C140.409 73.0628 141.427 74.0999 142.682 74.0999Z" fill="black"/>
<path opacity="0.28" d="M155.168 74.0999C156.423 74.0999 157.441 73.0628 157.441 71.7834C157.441 70.5041 156.423 69.467 155.168 69.467C153.913 69.467 152.895 70.5041 152.895 71.7834C152.895 73.0628 153.913 74.0999 155.168 74.0999Z" fill="black"/>
<path opacity="0.28" d="M80.2784 85.74C81.5337 85.74 82.5513 84.7029 82.5513 83.4236C82.5513 82.1442 81.5337 81.1071 80.2784 81.1071C79.0232 81.1071 78.0056 82.1442 78.0056 83.4236C78.0056 84.7029 79.0232 85.74 80.2784 85.74Z" fill="black"/>
<path opacity="0.28" d="M92.7648 85.74C94.02 85.74 95.0376 84.7029 95.0376 83.4236C95.0376 82.1442 94.02 81.1071 92.7648 81.1071C91.5095 81.1071 90.4919 82.1442 90.4919 83.4236C90.4919 84.7029 91.5095 85.74 92.7648 85.74Z" fill="black"/>
<path opacity="0.28" d="M105.237 85.74C106.492 85.74 107.51 84.7029 107.51 83.4236C107.51 82.1442 106.492 81.1071 105.237 81.1071C103.982 81.1071 102.964 82.1442 102.964 83.4236C102.964 84.7029 103.982 85.74 105.237 85.74Z" fill="black"/>
<path opacity="0.28" d="M119.996 83.4236C119.999 83.8823 119.868 84.3316 119.62 84.7144C119.372 85.0973 119.018 85.3964 118.603 85.574C118.188 85.7515 117.73 85.7995 117.289 85.7117C116.847 85.624 116.441 85.4045 116.121 85.0811C115.802 84.7577 115.584 84.345 115.495 83.8953C115.406 83.4456 115.451 82.9791 115.622 82.5549C115.794 82.1308 116.085 81.7682 116.459 81.513C116.833 81.2578 117.273 81.1216 117.723 81.1216C118.324 81.1216 118.9 81.3636 119.325 81.7949C119.751 82.2262 119.992 82.8117 119.996 83.4236Z" fill="black"/>
<path opacity="0.28" d="M130.195 85.74C131.451 85.74 132.468 84.7029 132.468 83.4236C132.468 82.1442 131.451 81.1071 130.195 81.1071C128.94 81.1071 127.923 82.1442 127.923 83.4236C127.923 84.7029 128.94 85.74 130.195 85.74Z" fill="black"/>
<path opacity="0.28" d="M142.682 85.74C143.937 85.74 144.955 84.7029 144.955 83.4236C144.955 82.1442 143.937 81.1071 142.682 81.1071C141.427 81.1071 140.409 82.1442 140.409 83.4236C140.409 84.7029 141.427 85.74 142.682 85.74Z" fill="black"/>
<path opacity="0.28" d="M155.168 85.74C156.423 85.74 157.441 84.7029 157.441 83.4236C157.441 82.1442 156.423 81.1071 155.168 81.1071C153.913 81.1071 152.895 82.1442 152.895 83.4236C152.895 84.7029 153.913 85.74 155.168 85.74Z" fill="black"/>
<path opacity="0.28" d="M80.2784 97.3802C81.5337 97.3802 82.5513 96.343 82.5513 95.0637C82.5513 93.7844 81.5337 92.7473 80.2784 92.7473C79.0232 92.7473 78.0056 93.7844 78.0056 95.0637C78.0056 96.343 79.0232 97.3802 80.2784 97.3802Z" fill="black"/>
<path opacity="0.28" d="M92.7648 97.3802C94.02 97.3802 95.0376 96.343 95.0376 95.0637C95.0376 93.7844 94.02 92.7473 92.7648 92.7473C91.5095 92.7473 90.4919 93.7844 90.4919 95.0637C90.4919 96.343 91.5095 97.3802 92.7648 97.3802Z" fill="black"/>
<path opacity="0.28" d="M105.237 97.3802C106.492 97.3802 107.51 96.343 107.51 95.0637C107.51 93.7844 106.492 92.7473 105.237 92.7473C103.982 92.7473 102.964 93.7844 102.964 95.0637C102.964 96.343 103.982 97.3802 105.237 97.3802Z" fill="black"/>
<path opacity="0.28" d="M119.996 95.1071C119.996 95.5653 119.863 96.0131 119.613 96.3941C119.363 96.775 119.008 97.0719 118.593 97.2473C118.178 97.4226 117.721 97.4685 117.28 97.3791C116.839 97.2897 116.434 97.0691 116.116 96.7451C115.798 96.4212 115.582 96.0084 115.494 95.5591C115.406 95.1097 115.451 94.6439 115.623 94.2207C115.796 93.7974 116.087 93.4356 116.461 93.1811C116.834 92.9265 117.274 92.7907 117.723 92.7907C118.326 92.7907 118.904 93.0347 119.33 93.4691C119.757 93.9036 119.996 94.4928 119.996 95.1071Z" fill="black"/>
<path opacity="0.28" d="M130.195 97.3802C131.451 97.3802 132.468 96.343 132.468 95.0637C132.468 93.7844 131.451 92.7473 130.195 92.7473C128.94 92.7473 127.923 93.7844 127.923 95.0637C127.923 96.343 128.94 97.3802 130.195 97.3802Z" fill="black"/>
<path opacity="0.28" d="M142.682 97.3802C143.937 97.3802 144.955 96.343 144.955 95.0637C144.955 93.7844 143.937 92.7473 142.682 92.7473C141.427 92.7473 140.409 93.7844 140.409 95.0637C140.409 96.343 141.427 97.3802 142.682 97.3802Z" fill="black"/>
<path opacity="0.28" d="M155.168 97.3802C156.423 97.3802 157.441 96.343 157.441 95.0637C157.441 93.7844 156.423 92.7473 155.168 92.7473C153.913 92.7473 152.895 93.7844 152.895 95.0637C152.895 96.343 153.913 97.3802 155.168 97.3802Z" fill="black"/>
<path opacity="0.28" d="M82.5513 106.689C82.5513 107.147 82.418 107.595 82.1682 107.976C81.9185 108.357 81.5635 108.654 81.1482 108.829C80.7329 109.005 80.2759 109.051 79.835 108.961C79.3941 108.872 78.9892 108.651 78.6713 108.327C78.3534 108.003 78.137 107.591 78.0493 107.141C77.9616 106.692 78.0066 106.226 78.1786 105.803C78.3506 105.38 78.6419 105.018 79.0157 104.763C79.3895 104.509 79.8289 104.373 80.2784 104.373C80.8812 104.373 81.4593 104.617 81.8856 105.051C82.3118 105.486 82.5513 106.075 82.5513 106.689Z" fill="black"/>
<path opacity="0.28" d="M95.0376 106.689C95.0376 107.147 94.9043 107.595 94.6546 107.976C94.4048 108.357 94.0499 108.654 93.6345 108.829C93.2192 109.005 92.7623 109.051 92.3214 108.961C91.8805 108.872 91.4755 108.651 91.1576 108.327C90.8398 108.003 90.6233 107.591 90.5356 107.141C90.4479 106.692 90.4929 106.226 90.665 105.803C90.837 105.38 91.1283 105.018 91.5021 104.763C91.8758 104.509 92.3153 104.373 92.7648 104.373C93.3676 104.373 93.9457 104.617 94.3719 105.051C94.7981 105.486 95.0376 106.075 95.0376 106.689Z" fill="black"/>
<path opacity="0.28" d="M107.51 106.689C107.51 107.147 107.376 107.595 107.127 107.976C106.877 108.357 106.522 108.654 106.107 108.829C105.691 109.005 105.234 109.051 104.794 108.961C104.353 108.872 103.948 108.651 103.63 108.327C103.312 108.003 103.095 107.591 103.008 107.141C102.92 106.692 102.965 106.226 103.137 105.803C103.309 105.38 103.6 105.018 103.974 104.763C104.348 104.509 104.787 104.373 105.237 104.373C105.84 104.373 106.418 104.617 106.844 105.051C107.27 105.486 107.51 106.075 107.51 106.689Z" fill="black"/>
<path opacity="0.28" d="M119.996 106.689C119.996 107.147 119.863 107.595 119.613 107.976C119.363 108.357 119.008 108.654 118.593 108.829C118.178 109.005 117.721 109.051 117.28 108.961C116.839 108.872 116.434 108.651 116.116 108.327C115.798 108.003 115.582 107.591 115.494 107.141C115.406 106.692 115.451 106.226 115.623 105.803C115.796 105.38 116.087 105.018 116.461 104.763C116.834 104.509 117.274 104.373 117.723 104.373C118.326 104.373 118.904 104.617 119.33 105.051C119.757 105.486 119.996 106.075 119.996 106.689Z" fill="black"/>
<path opacity="0.28" d="M132.468 106.689C132.468 107.147 132.335 107.595 132.085 107.976C131.835 108.357 131.481 108.654 131.065 108.829C130.65 109.005 130.193 109.051 129.752 108.961C129.311 108.872 128.906 108.651 128.588 108.327C128.27 108.003 128.054 107.591 127.966 107.141C127.879 106.692 127.924 106.226 128.096 105.803C128.268 105.38 128.559 105.018 128.933 104.763C129.307 104.509 129.746 104.373 130.195 104.373C130.798 104.373 131.376 104.617 131.803 105.051C132.229 105.486 132.468 106.075 132.468 106.689Z" fill="black"/>
<path opacity="0.28" d="M144.955 106.689C144.955 107.147 144.821 107.595 144.572 107.976C144.322 108.357 143.967 108.654 143.552 108.829C143.136 109.005 142.679 109.051 142.238 108.961C141.798 108.872 141.393 108.651 141.075 108.327C140.757 108.003 140.54 107.591 140.453 107.141C140.365 106.692 140.41 106.226 140.582 105.803C140.754 105.38 141.045 105.018 141.419 104.763C141.793 104.509 142.232 104.373 142.682 104.373C143.285 104.373 143.863 104.617 144.289 105.051C144.715 105.486 144.955 106.075 144.955 106.689Z" fill="black"/>
<path opacity="0.28" d="M157.427 106.689C157.427 107.148 157.293 107.597 157.043 107.978C156.792 108.359 156.437 108.656 156.02 108.831C155.604 109.006 155.147 109.051 154.705 108.96C154.264 108.87 153.859 108.648 153.542 108.322C153.225 107.997 153.009 107.583 152.923 107.132C152.837 106.682 152.884 106.216 153.058 105.793C153.232 105.37 153.526 105.009 153.902 104.756C154.277 104.503 154.718 104.37 155.168 104.373C155.768 104.377 156.343 104.622 156.766 105.056C157.189 105.49 157.427 106.078 157.427 106.689Z" fill="black"/>
<path opacity="0.28" d="M82.5513 118.344C82.5513 118.802 82.418 119.25 82.1682 119.631C81.9185 120.012 81.5635 120.309 81.1482 120.484C80.7329 120.659 80.2759 120.705 79.835 120.616C79.3941 120.527 78.9892 120.306 78.6713 119.982C78.3534 119.658 78.137 119.245 78.0493 118.796C77.9616 118.347 78.0066 117.881 78.1786 117.458C78.3506 117.034 78.6419 116.672 79.0157 116.418C79.3895 116.163 79.8289 116.028 80.2784 116.028C80.8812 116.028 81.4593 116.272 81.8856 116.706C82.3118 117.14 82.5513 117.73 82.5513 118.344Z" fill="black"/>
<path opacity="0.28" d="M95.0376 118.344C95.0376 118.802 94.9043 119.25 94.6546 119.631C94.4048 120.012 94.0499 120.309 93.6345 120.484C93.2192 120.659 92.7623 120.705 92.3214 120.616C91.8805 120.527 91.4755 120.306 91.1576 119.982C90.8398 119.658 90.6233 119.245 90.5356 118.796C90.4479 118.347 90.4929 117.881 90.665 117.458C90.837 117.034 91.1283 116.672 91.5021 116.418C91.8758 116.163 92.3153 116.028 92.7648 116.028C93.3676 116.028 93.9457 116.272 94.3719 116.706C94.7981 117.14 95.0376 117.73 95.0376 118.344Z" fill="black"/>
<path opacity="0.28" d="M107.51 118.344C107.51 118.802 107.376 119.25 107.127 119.631C106.877 120.012 106.522 120.309 106.107 120.484C105.691 120.659 105.234 120.705 104.794 120.616C104.353 120.527 103.948 120.306 103.63 119.982C103.312 119.658 103.095 119.245 103.008 118.796C102.92 118.347 102.965 117.881 103.137 117.458C103.309 117.034 103.6 116.672 103.974 116.418C104.348 116.163 104.787 116.028 105.237 116.028C105.536 116.026 105.832 116.084 106.109 116.2C106.386 116.316 106.637 116.486 106.848 116.702C107.06 116.917 107.227 117.173 107.341 117.455C107.454 117.737 107.512 118.039 107.51 118.344Z" fill="black"/>
<path opacity="0.28" d="M119.996 118.344C119.996 118.802 119.863 119.25 119.613 119.631C119.363 120.012 119.008 120.309 118.593 120.484C118.178 120.659 117.721 120.705 117.28 120.616C116.839 120.527 116.434 120.306 116.116 119.982C115.798 119.658 115.582 119.245 115.494 118.796C115.406 118.347 115.451 117.881 115.623 117.458C115.796 117.034 116.087 116.672 116.461 116.418C116.834 116.163 117.274 116.028 117.723 116.028C118.326 116.028 118.904 116.272 119.33 116.706C119.757 117.14 119.996 117.73 119.996 118.344Z" fill="black"/>
<path opacity="0.28" d="M132.468 118.344C132.468 118.802 132.335 119.25 132.085 119.631C131.835 120.012 131.481 120.309 131.065 120.484C130.65 120.659 130.193 120.705 129.752 120.616C129.311 120.527 128.906 120.306 128.588 119.982C128.27 119.658 128.054 119.245 127.966 118.796C127.879 118.347 127.924 117.881 128.096 117.458C128.268 117.034 128.559 116.672 128.933 116.418C129.307 116.163 129.746 116.028 130.195 116.028C130.494 116.026 130.791 116.084 131.067 116.2C131.344 116.316 131.595 116.486 131.807 116.702C132.018 116.917 132.186 117.173 132.299 117.455C132.413 117.737 132.47 118.039 132.468 118.344Z" fill="black"/>
<path opacity="0.28" d="M144.955 118.344C144.955 118.802 144.821 119.25 144.572 119.631C144.322 120.012 143.967 120.309 143.552 120.484C143.136 120.659 142.679 120.705 142.238 120.616C141.798 120.527 141.393 120.306 141.075 119.982C140.757 119.658 140.54 119.245 140.453 118.796C140.365 118.347 140.41 117.881 140.582 117.458C140.754 117.034 141.045 116.672 141.419 116.418C141.793 116.163 142.232 116.028 142.682 116.028C143.285 116.028 143.863 116.272 144.289 116.706C144.715 117.14 144.955 117.73 144.955 118.344Z" fill="black"/>
<path opacity="0.28" d="M157.427 118.344C157.427 118.803 157.293 119.251 157.043 119.632C156.792 120.014 156.437 120.311 156.02 120.485C155.604 120.66 155.147 120.705 154.705 120.615C154.264 120.524 153.859 120.302 153.542 119.977C153.225 119.651 153.009 119.237 152.923 118.787C152.837 118.337 152.884 117.87 153.058 117.447C153.232 117.024 153.526 116.664 153.902 116.411C154.277 116.158 154.718 116.025 155.168 116.028C155.466 116.028 155.761 116.088 156.036 116.204C156.311 116.321 156.56 116.492 156.77 116.707C156.98 116.922 157.146 117.178 157.259 117.459C157.372 117.74 157.429 118.04 157.427 118.344Z" fill="black"/>
<path opacity="0.28" d="M82.5513 129.984C82.5513 130.442 82.418 130.89 82.1682 131.271C81.9185 131.652 81.5635 131.949 81.1482 132.124C80.7329 132.3 80.2759 132.345 79.835 132.256C79.3941 132.167 78.9892 131.946 78.6713 131.622C78.3534 131.298 78.137 130.885 78.0493 130.436C77.9616 129.987 78.0066 129.521 78.1786 129.098C78.3506 128.674 78.6419 128.313 79.0157 128.058C79.3895 127.804 79.8289 127.668 80.2784 127.668C80.8812 127.668 81.4593 127.912 81.8856 128.346C82.3118 128.781 82.5513 129.37 82.5513 129.984Z" fill="black"/>
<path opacity="0.28" d="M95.0376 129.984C95.0376 130.442 94.9043 130.89 94.6546 131.271C94.4048 131.652 94.0499 131.949 93.6345 132.124C93.2192 132.3 92.7623 132.345 92.3214 132.256C91.8805 132.167 91.4755 131.946 91.1576 131.622C90.8398 131.298 90.6233 130.885 90.5356 130.436C90.4479 129.987 90.4929 129.521 90.665 129.098C90.837 128.674 91.1283 128.313 91.5021 128.058C91.8758 127.804 92.3153 127.668 92.7648 127.668C93.3676 127.668 93.9457 127.912 94.3719 128.346C94.7981 128.781 95.0376 129.37 95.0376 129.984Z" fill="black"/>
<path opacity="0.28" d="M107.51 129.984C107.51 130.442 107.376 130.89 107.127 131.271C106.877 131.652 106.522 131.949 106.107 132.124C105.691 132.3 105.234 132.345 104.794 132.256C104.353 132.167 103.948 131.946 103.63 131.622C103.312 131.298 103.095 130.885 103.008 130.436C102.92 129.987 102.965 129.521 103.137 129.098C103.309 128.674 103.6 128.313 103.974 128.058C104.348 127.804 104.787 127.668 105.237 127.668C105.536 127.666 105.832 127.724 106.109 127.84C106.386 127.956 106.637 128.126 106.848 128.342C107.06 128.557 107.227 128.813 107.341 129.095C107.454 129.377 107.512 129.679 107.51 129.984Z" fill="black"/>
<path opacity="0.28" d="M119.996 129.984C119.996 130.442 119.863 130.89 119.613 131.271C119.363 131.652 119.008 131.949 118.593 132.124C118.178 132.3 117.721 132.345 117.28 132.256C116.839 132.167 116.434 131.946 116.116 131.622C115.798 131.298 115.582 130.885 115.494 130.436C115.406 129.987 115.451 129.521 115.623 129.098C115.796 128.674 116.087 128.313 116.461 128.058C116.834 127.804 117.274 127.668 117.723 127.668C118.326 127.668 118.904 127.912 119.33 128.346C119.757 128.781 119.996 129.37 119.996 129.984Z" fill="black"/>
<path opacity="0.28" d="M132.468 129.984C132.468 130.442 132.335 130.89 132.085 131.271C131.835 131.652 131.481 131.949 131.065 132.124C130.65 132.3 130.193 132.345 129.752 132.256C129.311 132.167 128.906 131.946 128.588 131.622C128.27 131.298 128.054 130.885 127.966 130.436C127.879 129.987 127.924 129.521 128.096 129.098C128.268 128.674 128.559 128.313 128.933 128.058C129.307 127.804 129.746 127.668 130.195 127.668C130.494 127.666 130.791 127.724 131.067 127.84C131.344 127.956 131.595 128.126 131.807 128.342C132.018 128.557 132.186 128.813 132.299 129.095C132.413 129.377 132.47 129.679 132.468 129.984Z" fill="black"/>
<path opacity="0.28" d="M144.955 129.984C144.955 130.442 144.821 130.89 144.572 131.271C144.322 131.652 143.967 131.949 143.552 132.124C143.136 132.3 142.679 132.345 142.238 132.256C141.798 132.167 141.393 131.946 141.075 131.622C140.757 131.298 140.54 130.885 140.453 130.436C140.365 129.987 140.41 129.521 140.582 129.098C140.754 128.674 141.045 128.313 141.419 128.058C141.793 127.804 142.232 127.668 142.682 127.668C143.285 127.668 143.863 127.912 144.289 128.346C144.715 128.781 144.955 129.37 144.955 129.984Z" fill="black"/>
<path opacity="0.28" d="M157.427 129.984C157.427 130.443 157.293 130.891 157.043 131.273C156.792 131.654 156.437 131.951 156.02 132.126C155.604 132.3 155.147 132.346 154.705 132.255C154.264 132.164 153.859 131.942 153.542 131.617C153.225 131.291 153.009 130.877 152.923 130.427C152.837 129.977 152.884 129.511 153.058 129.088C153.232 128.665 153.526 128.304 153.902 128.051C154.277 127.798 154.718 127.665 155.168 127.668C155.466 127.668 155.761 127.728 156.036 127.844C156.311 127.961 156.56 128.132 156.77 128.347C156.98 128.562 157.146 128.818 157.259 129.099C157.372 129.38 157.429 129.681 157.427 129.984Z" fill="black"/>
<path d="M78.1619 155.812H113.036" stroke="#263238" stroke-linecap="round" stroke-linejoin="round"/>
<path d="M78.1619 179.817H113.036" stroke="#263238" stroke-linecap="round" stroke-linejoin="round"/>
<path d="M78.1619 203.821H113.036" stroke="#263238" stroke-linecap="round" stroke-linejoin="round"/>
<path d="M357.422 96.5549C357.422 96.5549 353.16 107.963 354.027 109.484C354.893 111.004 357.123 114.797 355.93 117.837C354.737 120.878 350.007 121.399 350.603 123.831C351.2 126.263 354.481 128.088 354.481 128.088C354.481 128.088 358.018 144.288 359.51 146.416C361.001 148.545 369.056 147.328 369.056 147.328L369.652 155.537L393.531 154.017L392.636 139.424L391.443 94.4267L357.422 96.5549Z" fill="white" stroke="#263238" stroke-linecap="round" stroke-linejoin="round"/>
<path d="M401.586 91.3429C400.201 89.3594 398.411 87.7057 396.339 86.4959C394.266 85.2862 391.961 84.5491 389.582 84.3357C389.582 84.3357 383.488 79.0223 377.408 79.0223C371.329 79.0223 368.729 82.1206 364.823 82.1206C360.916 82.1206 358.302 77.256 351.782 84.3357C345.262 91.4153 353.529 98.9437 353.529 98.9437C354.347 99.8241 355.358 100.493 356.479 100.896C357.601 101.299 358.8 101.424 359.979 101.26C359.709 102.607 359.155 105.604 358.927 107.819C358.629 110.859 363.999 114.203 363.999 114.203C363.827 116.235 363.928 118.28 364.297 120.284C364.894 121.804 366.385 122.108 367.28 120.892C368.175 119.676 368.772 113.899 369.667 116.332C370.561 118.764 374.141 137.006 376.528 139.134C378.914 141.262 389.667 140.046 392.65 139.438C395.634 138.83 401.301 126.061 404.015 118.46C406.728 110.859 405.464 97.4236 401.586 91.3429Z" fill="#263238" stroke="#263238" stroke-linecap="round" stroke-linejoin="round"/>
<path d="M367.095 116.129C367.49 118.956 367.732 121.802 367.82 124.656C367.82 128.001 365.632 129.854 367.095 131.345C368.558 132.836 369.638 132.083 370.732 129.477C371.907 126.412 372.392 123.117 372.152 119.835C371.826 117.244 371.456 111.67 367.095 116.129Z" fill="white" stroke="#263238" stroke-linecap="round" stroke-linejoin="round"/>
<path d="M342.804 286.952C342.804 286.952 335.347 337.624 329.594 387.544C323.841 437.463 324.551 507.13 324.551 507.13L339.722 507.043C339.722 507.043 356.939 409.55 360.547 398.547C364.155 387.544 376.386 341.316 376.386 341.316C376.386 341.316 382.863 394.146 385.022 397.78C387.181 401.414 416.458 507.724 416.458 507.724L432.311 507.521L416.686 392.741L408.035 287.054L342.804 286.952Z" fill="#263238" stroke="#263238" stroke-linecap="round" stroke-linejoin="round"/>
<path d="M404.27 324.03L383.09 332.21L376.385 341.316" stroke="white" stroke-width="0.75" stroke-linecap="round" stroke-linejoin="round"/>
<path d="M353.316 300.113H372.209" stroke="white" stroke-width="0.75" stroke-linecap="round" stroke-linejoin="round"/>
<path d="M406.557 300.113H399.114" stroke="white" stroke-width="0.75" stroke-linecap="round" stroke-linejoin="round"/>
<path d="M323.741 507.724L321.113 511.43C321.113 511.43 299.266 520.508 299.266 521.333C299.266 522.158 299.067 522.781 300.885 522.781H328.997L332.037 521.753V522.781H340.12L340.319 507.536L323.741 507.724Z" fill="#263238"/>
<path d="M416.572 507.724L413.944 511.43C413.944 511.43 392.111 520.508 392.111 521.333C392.111 522.158 391.898 522.781 393.716 522.781H421.842L424.868 521.753V522.781H432.965L433.164 507.536L416.572 507.724Z" fill="#263238"/>
<path d="M363.984 154.582L357.422 166.743C357.422 166.743 373.829 161.879 382.778 161.879C389.084 161.993 395.372 162.603 401.586 163.703L396.855 153.844C396.855 153.844 374.724 149.413 363.984 154.582Z" fill="#407BFF" stroke="#263238" stroke-linecap="round" stroke-linejoin="round"/>
<path d="M425.337 172.578L445.522 256.245C445.812 257.449 445.85 258.702 445.634 259.923C445.418 261.143 444.953 262.304 444.269 263.329C443.584 264.354 442.696 265.221 441.661 265.874C440.627 266.527 439.469 266.95 438.263 267.118L394.767 273.184L395.804 258.865L417.652 248.268L412.964 224.408C412.964 224.408 417.879 173.186 425.337 172.578Z" fill="#407BFF" stroke="#263238" stroke-linecap="round" stroke-linejoin="round"/>
<path d="M359.425 163.326C353.617 164.52 347.967 166.406 342.591 168.944C339.679 170.421 336.692 171.741 333.642 172.896C333.642 172.896 341.356 274.834 341.356 280.032C341.356 285.229 341.057 285.504 342.776 287.025C344.495 288.545 353.828 289.24 370.235 288.936C386.642 288.632 401.259 288.849 402.75 288.849C403.956 288.761 405.124 288.384 406.161 287.751C407.197 287.117 408.073 286.243 408.717 285.2C410.506 282.464 425.01 173.866 425.308 172.65C425.607 171.434 402.765 164.398 400.662 163.775C388.971 160.257 373.289 160.373 359.425 163.326Z" fill="#407BFF" stroke="#263238" stroke-linecap="round" stroke-linejoin="round"/>
<path d="M395.974 242.781C394.09 244.517 392.081 246.109 389.966 247.544" stroke="#263238" stroke-linecap="round" stroke-linejoin="round"/>
<path d="M417.879 203.053C417.879 203.053 413.731 221.73 401.628 236.627" stroke="#263238" stroke-linecap="round" stroke-linejoin="round"/>
<path d="M419.754 248.572C419.754 248.572 424.129 254.826 434.826 255.55" stroke="#263238" stroke-linecap="round" stroke-linejoin="round"/>
<path d="M417.652 248.297C418.369 250.57 419.532 252.672 421.071 254.474C422.609 256.276 424.49 257.74 426.601 258.778" stroke="#263238" stroke-linecap="round" stroke-linejoin="round"/>
<path d="M333.6 172.853L291.453 186.317L249.618 133.184L241.493 140.09L278.981 213.593C280.133 215.862 281.99 217.678 284.261 218.76C286.532 219.841 289.091 220.127 291.538 219.573L336.256 209.482C336.256 209.482 341.768 194.135 333.6 172.853Z" fill="#407BFF" stroke="#263238" stroke-linecap="round" stroke-linejoin="round"/>
<path d="M290.117 188.054C290.117 188.054 286.012 193.643 286.467 199.637" stroke="#263238" stroke-linecap="round" stroke-linejoin="round"/>
<path d="M283.27 192.716C283.27 192.716 281.438 201.084 284.691 206.21" stroke="#263238" stroke-linecap="round" stroke-linejoin="round"/>
<path d="M336.256 209.482C336.256 209.482 346.725 221.976 354.936 226.16" stroke="#263238" stroke-linecap="round" stroke-linejoin="round"/>
<path d="M338.955 215.968C338.955 215.968 344.893 229.939 356.768 236.439" stroke="#263238" stroke-linecap="round" stroke-linejoin="round"/>
<path d="M245.101 147.444L254.136 141.465" stroke="#263238" stroke-linecap="round" stroke-linejoin="round"/>
<path d="M249.618 133.184C249.618 133.184 252.459 129.593 252.459 126.278C252.459 122.962 250.187 119.039 251.167 116.332C252.147 113.624 256.366 110.367 252.786 109.368C249.206 108.369 246.28 110.367 245.954 113.016C245.627 115.666 245.954 115.999 245.954 115.999C245.954 115.999 242.047 108.036 239.448 105.386C236.848 102.737 234.902 99.7545 233.268 99.7545C231.635 99.7545 230.015 100.739 230.995 102.404C231.976 104.069 236.848 112.017 236.848 112.017L237.828 115.333C237.828 115.333 232.288 115.666 231.635 116.665C230.981 117.664 231.322 120.646 229.689 122.629C228.055 124.613 228.382 126.611 229.035 128.609C229.689 130.607 231.635 133.908 232.942 133.908C233.744 133.9 234.53 133.669 235.214 133.242L241.422 140.09L249.618 133.184Z" fill="white" stroke="#263238" stroke-linecap="round" stroke-linejoin="round"/>
<path d="M235.285 133.242L232.032 128.276" stroke="#263238" stroke-linecap="round" stroke-linejoin="round"/>
</svg>
