<svg width="520" height="535" viewBox="0 0 520 535" fill="none" xmlns="http://www.w3.org/2000/svg">
<path d="M459.788 83.5383C420.587 34.6668 365.953 2.18111 306.746 0.0832139C222.421 -2.88881 178.98 74.511 116.39 110.223C53.7995 145.935 10.3448 177.308 2.67887 247.238C-4.98704 317.168 1.40121 382.68 53.785 415.42C106.169 448.16 138.11 393.169 205.811 396.078C273.512 398.986 314.412 488.401 399.361 461.589C455.273 443.948 496.709 379.31 512.288 317.136C533.631 231.949 508.92 144.886 459.788 83.5383Z" fill="#407BFF"/>
<path opacity="0.7" d="M459.788 83.5383C420.587 34.6668 365.953 2.18111 306.746 0.0832139C222.421 -2.88881 178.98 74.511 116.39 110.223C53.7995 145.935 10.3448 177.308 2.67887 247.238C-4.98704 317.168 1.40121 382.68 53.785 415.42C106.169 448.16 138.11 393.169 205.811 396.078C273.512 398.986 314.412 488.401 399.361 461.589C455.273 443.948 496.709 379.31 512.288 317.136C533.631 231.949 508.92 144.886 459.788 83.5383Z" fill="white"/>
<path d="M218.413 516.135C218.413 526.561 182.9 535 139.097 535C95.294 535 59.7666 526.561 59.7666 516.135C59.7666 505.709 95.2795 497.285 139.097 497.285C182.915 497.285 218.413 505.725 218.413 516.135Z" fill="#407BFF"/>
<path opacity="0.5" d="M218.413 516.135C218.413 526.561 182.9 535 139.097 535C95.294 535 59.7666 526.561 59.7666 516.135C59.7666 505.709 95.2795 497.285 139.097 497.285C182.915 497.285 218.413 505.725 218.413 516.135Z" fill="white"/>
<path d="M485.559 517.184C485.559 527.022 450.046 535 406.228 535C362.411 535 326.912 527.053 326.912 517.184C326.912 507.314 362.425 499.367 406.228 499.367C450.031 499.367 485.559 507.346 485.559 517.184Z" fill="#407BFF"/>
<path opacity="0.5" d="M485.559 517.184C485.559 527.022 450.046 535 406.228 535C362.411 535 326.912 527.053 326.912 517.184C326.912 507.314 362.425 499.367 406.228 499.367C450.031 499.367 485.559 507.346 485.559 517.184Z" fill="white"/>
<path d="M142.916 487.098C142.916 487.098 141.653 491.786 146.197 497.031C150.741 502.276 157.551 506.154 156.288 508.633C155.024 511.113 147.46 508.633 142.408 506.154C137.355 503.675 135.148 498.414 131.562 495.935C127.976 493.455 129.805 492.899 131.315 488.481C132.055 486.184 132.983 483.966 134.088 481.853L142.916 487.098Z" fill="white" stroke="#263238" stroke-linecap="round" stroke-linejoin="round"/>
<path d="M131.301 488.481C131.489 487.908 131.664 487.495 131.838 487.002C134.364 489.895 138.865 494.822 138.865 494.822C139.353 493.429 140.034 492.126 140.883 490.96C141.081 490.589 141.359 490.278 141.694 490.053C142.028 489.828 142.408 489.698 142.8 489.673C143.142 492.471 144.334 495.062 146.182 497.031C150.727 502.276 157.536 506.154 156.273 508.633C155.01 511.112 147.446 508.633 142.393 506.154C137.34 503.674 135.134 498.414 131.547 495.934C127.961 493.455 129.849 492.899 131.301 488.481Z" fill="#407BFF" stroke="#263238" stroke-linecap="round" stroke-linejoin="round"/>
<path d="M125.043 500.893C126.835 504.836 129.032 508.542 131.591 511.939C135.656 517.2 142.916 521.062 142.916 523.779C142.916 526.497 135.86 528.198 128.542 525.146C121.225 522.095 116.433 517.422 115.678 512.177C115.204 508.608 114.952 505.008 114.923 501.402C114.923 501.402 123.519 502.006 125.043 500.893Z" fill="white" stroke="#263238" stroke-linecap="round" stroke-linejoin="round"/>
<path d="M170.501 288.274C170.501 288.274 178.574 339.911 182.116 366.421C185.659 392.931 185.151 393.439 183.133 401.767C181.115 410.095 143.772 486.001 143.017 487.098C142.262 488.195 135.758 486.812 134.945 484.332L134.19 481.853C134.19 481.853 150.582 416.405 155.373 404.803C160.164 393.201 160.179 389.625 155.634 376.37C151.09 363.115 142.916 339.418 142.916 339.418C142.916 339.418 138.56 387.734 131.562 423.907C124.564 460.079 126.771 499.574 125.014 500.941C123.257 502.308 116.172 503.436 115.17 500.4C114.169 497.365 101.29 447.651 105.08 414.8C108.869 381.949 112.905 371.713 108.869 351.831C104.833 331.949 100.027 303.786 101.044 288.258C102.06 272.731 159.845 270.887 170.501 288.274Z" fill="#263238" stroke="#263238" stroke-linecap="round" stroke-linejoin="round"/>
<path d="M115.707 512.225C115.461 510.509 115.301 508.792 115.185 507.219C117.479 508.999 120.499 511.112 120.499 511.112C121.096 509.04 122.131 507.151 123.519 505.598C124.016 505.162 124.61 504.879 125.239 504.776C125.869 504.672 126.513 504.753 127.105 505.009C128.438 507.44 129.938 509.757 131.591 511.939C135.656 517.2 142.916 521.062 142.916 523.779C142.916 526.497 135.86 528.198 128.542 525.146C121.225 522.095 116.462 517.422 115.707 512.225Z" fill="#407BFF" stroke="#263238" stroke-linecap="round" stroke-linejoin="round"/>
<path d="M257.237 215.706H242.224C240.772 215.706 229.085 222.286 229.085 222.286L203.198 230.916L206.203 242.422L230.972 228.85L239.596 228.039C242.305 227.78 244.84 226.466 246.739 224.336C246.739 224.336 255.364 221.872 257.237 220.235C259.109 218.598 257.237 215.706 257.237 215.706Z" fill="white" stroke="#263238" stroke-linecap="round" stroke-linejoin="round"/>
<path d="M443.454 90.8968C443.454 90.8968 438.997 75.1148 419.76 72.111C400.522 69.1072 382.011 76.6247 375.811 93.1536C369.612 109.683 383.652 118.122 379.528 130.9C375.405 143.678 351.71 132.394 338.672 150.067C325.635 167.74 327.333 181.631 334.883 194.044C342.433 206.456 352.059 208.347 342.781 219.981C333.504 231.615 323.558 238.02 328.016 257.187C332.473 276.354 351.376 292.518 390.446 293.265C429.516 294.012 434.395 256.44 431.651 225.989C428.907 195.537 437.821 188.783 451.977 173.001C466.133 157.219 464.724 117.216 443.454 90.8968Z" fill="#263238" stroke="#263238" stroke-linecap="round" stroke-linejoin="round"/>
<path d="M351.304 278.468C354.774 281.647 358.941 282.712 362.425 280.932" stroke="white" stroke-linecap="round" stroke-linejoin="round"/>
<path d="M348.734 167.772C345.322 170.717 343.051 174.962 342.375 179.66C339.587 198.557 357.968 206.488 361.249 217.454C364.53 228.42 347.326 237.575 344.538 255.264C343.35 261.861 344.564 268.705 347.921 274.336" stroke="white" stroke-linecap="round" stroke-linejoin="round"/>
<path d="M389.735 119.981C389.735 119.981 388.065 142.534 378.599 151.688C374.026 156.107 366.069 158.379 358.752 161.701" stroke="white" stroke-linecap="round" stroke-linejoin="round"/>
<path d="M417.234 115.229C419.824 123.772 424.571 131.337 430.925 137.051C447.636 151.688 455.984 154.12 455.984 154.12" stroke="white" stroke-linecap="round" stroke-linejoin="round"/>
<path d="M414.214 98.0328C414.264 100.249 414.458 102.458 414.794 104.644" stroke="white" stroke-linecap="round" stroke-linejoin="round"/>
<path d="M437.052 88.3062C428.093 87.1372 419.016 88.8318 410.918 93.1854C396.994 100.496 386.976 111.478 380.283 106.599" stroke="white" stroke-linecap="round" stroke-linejoin="round"/>
<path d="M448.841 142.343C450.553 143.971 452.383 145.444 454.314 146.745" stroke="white" stroke-linecap="round" stroke-linejoin="round"/>
<path d="M432.594 90.1022C432.594 90.1022 429.342 118.519 444.659 137.782" stroke="white" stroke-linecap="round" stroke-linejoin="round"/>
<path d="M380.24 93.7734C380.24 93.7734 383.027 98.6367 398.069 88.8942C413.11 79.1517 424.798 83.3952 430.925 85.8427" stroke="white" stroke-linecap="round" stroke-linejoin="round"/>
<path d="M408.188 363.926C408.188 363.926 406.809 395.506 406.809 410.54C406.809 425.575 404.399 479.692 406.127 497.73C407.854 515.769 417.742 524.431 420.892 523.668C424.043 522.905 422.605 510.954 418.831 501.116C415.056 491.278 415.056 472.174 416.42 467.74C417.785 463.306 430.155 436.542 430.155 421.507C430.155 406.472 427.76 395.569 429.473 383.156C431.186 370.744 432.217 365.499 432.217 365.499L408.188 363.926Z" fill="white" stroke="#263238" stroke-miterlimit="10"/>
<path d="M420.892 523.668C423.622 523.001 422.852 513.496 420.021 504.596C419.223 509.571 417.901 511.971 413.488 510.365C412.007 509.69 410.664 508.698 409.538 507.449C408.411 506.199 407.523 504.716 406.925 503.086C409.858 517.422 418.119 524.351 420.892 523.668Z" fill="#407BFF" stroke="#263238" stroke-linecap="round" stroke-linejoin="round"/>
<path d="M402.395 363.926C402.395 363.926 403.76 395.506 403.76 410.54C403.76 425.575 406.17 479.692 404.457 497.73C402.744 515.769 392.842 524.431 389.691 523.668C386.541 522.905 387.978 510.954 391.753 501.116C395.528 491.278 395.528 472.174 394.149 467.74C392.769 463.306 380.414 436.542 380.414 421.507C380.414 406.472 382.824 395.569 381.111 383.156C379.398 370.744 378.352 365.499 378.352 365.499L402.395 363.926Z" fill="white" stroke="#263238" stroke-miterlimit="10"/>
<path d="M393.336 511.891C388.98 511.367 391.753 501.116 391.753 501.116C387.978 510.89 386.599 522.921 389.691 523.668C392.784 524.415 401.466 516.866 404.007 501.148C401.219 505.439 396.297 512.257 393.336 511.891Z" fill="#407BFF" stroke="#263238" stroke-linecap="round" stroke-linejoin="round"/>
<path d="M399.753 149.32L366.795 162.845L382.243 238.385C382.243 238.385 370.919 254.549 366.113 271.475C361.307 288.401 363.354 316.945 367.478 334.619C371.601 352.292 377.989 371.443 377.989 371.443H434.148C434.148 371.443 448.507 318.074 445.763 286.129C444.196 267.153 438.801 248.794 429.967 232.378L444.05 161.335L412.108 148.192L399.753 149.32Z" fill="#407BFF" stroke="#263238" stroke-linecap="round" stroke-linejoin="round"/>
<path d="M395.252 304.708C395.252 304.708 405.938 333.506 405.125 356.901" stroke="#263238" stroke-linecap="round" stroke-linejoin="round"/>
<path d="M418.279 310.111C415.757 317.133 412.44 323.781 408.406 329.898" stroke="#263238" stroke-linecap="round" stroke-linejoin="round"/>
<path d="M397.357 143.344C398.033 151.226 399.295 159.034 401.132 166.691C403.876 177.117 409.364 180.598 413.139 168.185C416.914 155.773 415.549 135.414 415.549 135.414C415.549 135.414 406.62 149.304 397.357 143.344Z" fill="white" stroke="#263238" stroke-linecap="round" stroke-linejoin="round"/>
<path d="M444.05 161.415L472.913 227.928C474.481 231.647 473.799 240.07 470.924 242.693C469.978 243.562 468.867 244.189 467.671 244.529C466.476 244.869 465.226 244.912 464.013 244.657C462.8 244.401 461.655 243.852 460.66 243.05C459.666 242.249 458.847 241.214 458.264 240.022L437.531 195.251L444.05 161.415Z" fill="#407BFF" stroke="#263238" stroke-linecap="round" stroke-linejoin="round"/>
<path d="M445.762 288.17C459.506 273.126 459.506 248.733 445.762 233.688C432.018 218.643 409.734 218.643 395.99 233.688C382.247 248.733 382.247 273.126 395.99 288.171C409.734 303.216 432.018 303.215 445.762 288.17Z" fill="#263238" stroke="#263238" stroke-linecap="round" stroke-linejoin="round"/>
<path d="M443.367 255.312H426.017V236.319H415.724V255.312H398.388V266.58H415.724V285.572H426.017V266.58H443.367V255.312Z" fill="#407BFF"/>
<path d="M461.559 225.989L430.663 275.973L436.471 282.743C436.471 282.743 473.886 243.662 475.265 238.385C476.644 233.109 472.521 227.117 470.111 222.985" fill="#407BFF"/>
<path d="M461.559 225.989L430.663 275.973L436.471 282.743C436.471 282.743 473.886 243.662 475.265 238.385C476.644 233.109 472.521 227.117 470.111 222.985" stroke="#263238" stroke-linecap="round" stroke-linejoin="round"/>
<path d="M430.663 275.973C430.663 275.973 421.734 279.74 420.703 280.487C418.626 283.007 416.686 285.661 414.896 288.433C414.896 288.433 413.168 292.947 414.896 292.947C416.624 292.947 417.988 289.927 419.019 289.18C420.05 288.433 420.384 292.184 419.019 293.694C417.655 295.204 413.865 301.64 416.609 303.087C419.353 304.533 421.763 300.464 422.794 300.464C423.825 300.464 429.313 301.211 432.406 297.445C435.498 293.678 436.529 282.791 436.529 282.791L430.663 275.973Z" fill="white" stroke="#263238" stroke-linecap="round" stroke-linejoin="round"/>
<path d="M366.795 162.845L351.986 227.165C351.217 230.534 348.255 238.211 350.854 240.213L352.581 242.105C356.458 245.092 363.979 244.377 366.055 239.736L376.45 210.207L366.795 162.845Z" fill="#407BFF" stroke="#263238" stroke-linecap="round" stroke-linejoin="round"/>
<path d="M359.579 224.86L317.344 218.503L317.01 226.768C317.01 226.768 340.008 240.118 347.5 243.885C354.992 247.651 363.543 245.776 365.939 239.768C368.334 233.761 370.861 221.189 370.861 221.189" fill="#407BFF"/>
<path d="M359.579 224.86L317.344 218.503L317.01 226.768C317.01 226.768 340.008 240.118 347.5 243.885C354.992 247.651 363.543 245.776 365.939 239.768C368.334 233.761 370.861 221.189 370.861 221.189" stroke="#263238" stroke-linecap="round" stroke-linejoin="round"/>
<path d="M311.74 221.57C310.337 221.01 308.872 220.657 307.384 220.522L304.684 212.829C304.684 212.829 297.599 211.145 293.446 211.939C289.294 212.734 294.419 219.441 295.406 221.046C295.769 221.65 297.773 222.222 300.11 222.635L298.818 227.403C298.818 227.403 302.985 230.073 305.918 230.073C308.851 230.073 317.054 226.672 317.054 226.672C315.771 224.444 313.925 222.672 311.74 221.57Z" fill="white" stroke="#263238" stroke-linecap="round" stroke-linejoin="round"/>
<path d="M269.244 268.44C288.68 268.44 304.437 251.191 304.437 229.914C304.437 208.638 288.68 191.389 269.244 191.389C249.807 191.389 234.05 208.638 234.05 229.914C234.05 251.191 249.807 268.44 269.244 268.44Z" fill="#263238" stroke="#263238" stroke-linecap="round" stroke-linejoin="round"/>
<path d="M291.733 224.288H274.398V205.296H264.089V224.288H246.754V235.557H264.089V254.533H274.398V235.557H291.733V224.288Z" fill="#407BFF"/>
<path d="M317.344 218.471C317.344 218.471 306.702 212.829 304.64 212.829C302.579 212.829 297.773 222.238 296.06 223.366C294.347 224.495 291.254 226.37 294.347 227.117C296.987 227.492 299.663 226.827 301.896 225.242C302.865 224.432 303.782 223.551 304.64 222.604C304.64 222.604 307.051 224.113 309.446 225.242C311.903 226.075 314.443 226.576 317.01 226.736L317.344 218.471Z" fill="white" stroke="#263238" stroke-linecap="round" stroke-linejoin="round"/>
<path d="M105.443 89.228C105.443 89.228 98.9093 82.076 80.7608 82.076C62.6123 82.076 50.9973 106.71 50.9973 124.193C50.9973 141.675 60.4345 166.31 64.0642 182.998C67.6939 199.686 64.7901 213.195 50.9973 214.784C37.2045 216.373 30.1774 230.359 43.9702 247.047C57.763 263.735 94.5536 252.928 106.169 229.883C117.784 206.838 122.139 192.534 117.058 152.006C111.976 111.478 105.443 89.228 105.443 89.228Z" fill="#263238" stroke="#263238" stroke-linecap="round" stroke-linejoin="round"/>
<path d="M94.4519 95.0608C94.4519 95.0608 72.6738 94.2979 65.0079 120.395C57.3419 146.491 72.7173 164.148 75.5195 193.312C78.3216 222.476 72.0204 237.066 55.1932 235.541C38.3659 234.015 46.7723 218.63 53.0879 218.63C59.4036 218.63 59.3891 225.544 59.3891 225.544" stroke="white" stroke-linecap="round" stroke-linejoin="round"/>
<path d="M92.3468 105.789C84.6373 118.758 79.0911 134.762 85.0874 149.765C90.0964 162.384 99.6062 171.348 95.8894 186.319" stroke="white" stroke-linecap="round" stroke-linejoin="round"/>
<path d="M143.627 95.0449C143.627 95.0449 152.338 101.116 150.451 108.125C148.563 115.134 140.854 117.661 139.78 115.134C138.705 112.607 133.972 99.9559 135.729 96.2051C137.486 92.4543 143.627 95.0449 143.627 95.0449Z" fill="#263238" stroke="#263238" stroke-linecap="round" stroke-linejoin="round"/>
<path d="M126.553 151.879C126.771 152.578 126.553 153.977 130.909 163.195C133.725 169.266 146.879 176.704 146.879 176.704C146.879 176.704 128.107 180.153 123.199 181.313C118.292 182.473 98.2415 173.525 98.2415 173.525C98.2415 173.525 109.131 169.171 109.131 154.454C109.131 139.736 110.974 137.098 110.974 137.098C112.953 136.962 114.928 137.411 116.693 138.399C118.458 139.386 119.948 140.874 121.007 142.709C123 145.658 124.851 148.719 126.553 151.879Z" fill="white" stroke="#263238" stroke-linecap="round" stroke-linejoin="round"/>
<path d="M149.725 165.515C149.725 165.515 159.162 168.694 162.792 175.051C166.422 181.408 178.037 235.445 178.037 235.445C178.037 235.445 179.488 235.445 187.474 233.061C195.459 230.677 191.902 232.044 191.902 232.044L196.984 233.633L206.101 229.612L210.326 242.82L202.791 246.348C202.791 246.348 199.161 255.089 194.806 257.473C188.154 260.823 180.99 262.785 173.681 263.258C164.244 264.053 156.984 257.696 156.984 249.749C156.984 241.803 148.999 179.819 148.999 179.819" fill="#407BFF"/>
<path d="M149.725 165.515C149.725 165.515 159.162 168.694 162.792 175.051C166.422 181.408 178.037 235.445 178.037 235.445C178.037 235.445 179.488 235.445 187.474 233.061C195.459 230.677 191.902 232.044 191.902 232.044L196.984 233.633L206.101 229.612L210.326 242.82L202.791 246.348C202.791 246.348 199.161 255.089 194.806 257.473C188.154 260.823 180.99 262.785 173.681 263.258C164.244 264.053 156.984 257.696 156.984 249.749C156.984 241.803 148.999 179.819 148.999 179.819" stroke="#263238" stroke-linecap="round" stroke-linejoin="round"/>
<path d="M135.889 308.983C119.381 311.144 108.564 310.239 101.944 308.872C101.101 302.026 100.809 295.112 101.073 288.211C102.074 272.747 159.845 270.823 170.443 288.211C170.443 288.211 171.024 291.993 171.895 297.921C170.632 299.415 163.678 305.359 135.889 308.983Z" fill="white" stroke="#263238" stroke-linecap="round" stroke-linejoin="round"/>
<path d="M167.83 264.228C166.668 232.775 172.65 219.918 149.725 165.515C140.738 163.02 138.037 164.657 135.206 160.271C130.895 164.754 125.48 167.759 119.628 168.916C109.595 171.014 104.049 165.642 104.049 165.642C104.049 165.642 75.447 168.916 78.4378 184.794C81.4287 200.671 97.2106 245.299 97.8495 261.192C98.4883 277.085 92.9421 293.9 97.8495 297.397C102.757 300.893 126.887 303.945 145.239 300.448C163.59 296.952 176.309 291.739 175.293 286.653C174.276 281.567 168.222 274.749 167.83 264.228Z" fill="#407BFF" stroke="#263238" stroke-linecap="round" stroke-linejoin="round"/>
<path d="M165.129 229.326C165.129 229.326 149.928 257.934 138.125 269.965" stroke="#263238" stroke-linecap="round" stroke-linejoin="round"/>
<path d="M142.335 255.185C136.216 261.997 129.082 267.619 121.239 271.809" stroke="#263238" stroke-linecap="round" stroke-linejoin="round"/>
<path d="M106.169 159.953C106.169 159.953 109.566 171.078 119.599 168.916C125.451 167.759 130.866 164.754 135.177 160.27C136.353 162.066 139.155 163.449 142.625 164.657C140.288 180.55 122.299 185.541 111.25 182.14C104.499 180.121 101.087 171.141 98.3721 166.612C101.639 165.928 106.169 159.953 106.169 159.953Z" fill="white" stroke="#263238" stroke-linecap="round" stroke-linejoin="round"/>
<path d="M93.2324 282.203C93.2324 282.203 101.944 308.665 105.08 323.319C108.216 337.972 105.777 343.344 105.994 351.354C106.212 359.364 105.994 368.582 104.659 368.153C103.323 367.724 102.684 364.689 102.699 361.558C102.713 358.427 102.539 349.844 102.539 349.844C102.539 349.844 98.9818 361.844 98.5608 362.877C98.1397 363.91 96.2087 364.339 96.7459 360.954C97.2831 357.568 99.3448 346.729 99.3448 346.729C99.3448 346.729 93.7551 357.616 93.2905 358.268C92.8258 358.919 90.5028 358.999 91.1562 356.774C91.8095 354.549 96.5862 342.581 96.5862 342.581C96.5862 342.581 89.8059 351.068 89.0509 350.782C88.296 350.496 88.3395 349.113 89.0509 347.603C89.7624 346.094 94.0019 340.324 94.6262 339.466C95.2505 338.608 95.0908 338.815 95.8167 335.588C96.5426 332.362 98.7205 329.358 99.156 328.325C99.5916 327.292 78.6555 281.456 78.6555 281.456L93.2324 282.203Z" fill="white" stroke="#263238" stroke-linecap="round" stroke-linejoin="round"/>
<path d="M89.414 170.474C89.414 170.474 73.9225 173.557 70.3944 182.044C66.8664 190.531 71.8463 206.71 71.8463 216.739C71.8463 226.768 66.9244 254.517 69.0297 261.462C71.1349 268.408 72.5577 277.657 73.2546 280.741C73.9515 283.824 80.2962 286.129 80.2962 286.129L82.2563 295.474L98.2269 292.184L96.4556 283.792C96.4556 283.792 99.9837 284.555 98.5754 275.305C97.1671 266.055 94.3504 260.652 94.3504 252.944C94.3504 245.235 93.639 219.028 97.1671 202.832" fill="#407BFF"/>
<path d="M89.414 170.474C89.414 170.474 73.9225 173.557 70.3944 182.044C66.8664 190.531 71.8463 206.71 71.8463 216.739C71.8463 226.768 66.9244 254.517 69.0297 261.462C71.1349 268.408 72.5577 277.657 73.2546 280.741C73.9515 283.824 80.2962 286.129 80.2962 286.129L82.2563 295.474L98.2269 292.184L96.4556 283.792C96.4556 283.792 99.9837 284.555 98.5754 275.305C97.1671 266.055 94.3504 260.652 94.3504 252.944C94.3504 245.235 93.639 219.028 97.1671 202.832" stroke="#263238" stroke-linecap="round" stroke-linejoin="round"/>
<path d="M228.969 222.747L235.052 213.465L244.62 211.192C244.62 211.192 248.569 209.905 248.032 212.225C247.494 214.546 246.769 214.784 244.257 215.611L239.901 217.009C239.165 219.504 237.682 221.655 235.691 223.112C235.052 223.488 234.351 223.72 233.629 223.796" fill="white"/>
<path d="M228.969 222.747L235.052 213.465L244.62 211.192C244.62 211.192 248.569 209.905 248.032 212.225C247.494 214.546 246.769 214.784 244.257 215.611L239.901 217.009C239.165 219.504 237.682 221.655 235.691 223.112C235.052 223.488 234.351 223.72 233.629 223.796" stroke="#263238" stroke-linecap="round" stroke-linejoin="round"/>
<path d="M141.914 98.0804C141.914 98.0804 145.761 125.417 143.627 135.461C141.493 145.506 134.204 155.057 126.553 153.913C118.902 152.769 113.109 141.294 113.109 141.294C113.109 141.294 110.757 142.883 109.697 141.071C108.637 139.26 108.419 134.523 109.697 129.613C110.974 124.702 131.039 92.4701 141.914 98.0804Z" fill="white" stroke="#263238" stroke-linecap="round" stroke-linejoin="round"/>
<path d="M126.771 117.216C127.133 116.191 127.765 115.307 128.587 114.676C129.409 114.045 130.384 113.695 131.388 113.672" stroke="#263238" stroke-linecap="round" stroke-linejoin="round"/>
<path d="M138.052 112.734C138.73 112.424 139.482 112.367 140.193 112.571C140.904 112.775 141.534 113.228 141.986 113.862" stroke="#263238" stroke-linecap="round" stroke-linejoin="round"/>
<path d="M137.66 120.744C137.66 120.744 136.44 125.194 138.879 126.545C141.319 127.896 138.879 130.105 138.066 131.44" stroke="#263238" stroke-linecap="round" stroke-linejoin="round"/>
<path d="M135.656 138.576C134.485 138.795 133.283 138.706 132.15 138.317C131.016 137.927 129.984 137.248 129.137 136.335" stroke="#263238" stroke-linecap="round" stroke-linejoin="round"/>
<path d="M132.07 122.27C132.07 123.621 131.606 124.702 131.039 124.702C130.473 124.702 130.023 123.621 130.023 122.27C130.023 120.919 130.473 119.838 131.039 119.838C131.606 119.838 132.07 120.935 132.07 122.27Z" fill="#263238"/>
<path d="M141.304 121.682C141.304 123.017 140.839 124.114 140.273 124.114C139.707 124.114 139.242 123.017 139.242 121.682C139.242 120.347 139.707 119.25 140.273 119.25C140.839 119.25 141.304 120.363 141.304 121.682Z" fill="#263238"/>
<path d="M114.154 85.2547C114.154 85.2547 145.123 82.4258 146.4 89.4347C147.678 96.4435 122.706 120.093 115.243 130.55C107.78 141.008 104.993 143.63 101.16 141.993C97.3268 140.356 85.9295 117.931 90.1981 102.737C94.4666 87.5434 114.154 85.2547 114.154 85.2547Z" fill="#263238" stroke="#263238" stroke-linecap="round" stroke-linejoin="round"/>
<path d="M134.422 86.6215C134.422 86.6215 128.818 111.955 114.793 123.462C100.768 134.969 95.1635 129.628 95.1635 129.628" stroke="white" stroke-linecap="round" stroke-linejoin="round"/>
<path d="M114.154 85.2546C114.154 85.2546 118.292 105.042 111.25 114.26C104.209 123.478 91.6208 122.699 91.6208 122.699" stroke="white" stroke-linecap="round" stroke-linejoin="round"/>
<path d="M410.874 102.499C410.453 102.292 410.41 101.974 410.657 101.561C410.511 100.83 410.41 100.321 410.352 100.067C407.743 101.93 405.005 103.566 402.163 104.962C396.948 107.556 391.383 109.204 385.684 109.841C385.684 109.841 388.428 130.503 393.916 141.04C397.909 148.684 401.815 152.689 412.123 145.553C414.507 143.85 416.559 141.645 418.159 139.067C419.759 136.488 420.875 133.588 421.444 130.534C415.622 121.825 412.137 108.173 410.874 102.499Z" fill="white" stroke="#263238" stroke-linecap="round" stroke-linejoin="round"/>
<path d="M406.141 114.927C405.785 113.901 405.156 113.015 404.336 112.383C403.516 111.752 402.541 111.403 401.539 111.383" stroke="#263238" stroke-linecap="round" stroke-linejoin="round"/>
<path d="M394.875 110.445C394.198 110.137 393.447 110.078 392.737 110.279C392.027 110.48 391.396 110.929 390.94 111.558" stroke="#263238" stroke-linecap="round" stroke-linejoin="round"/>
<path d="M395.252 118.503C395.252 118.503 396.472 122.953 394.033 124.288C391.593 125.623 394.033 127.864 394.846 129.199" stroke="#263238" stroke-linecap="round" stroke-linejoin="round"/>
<path d="M397.285 136.272C398.455 136.492 399.655 136.404 400.789 136.018C401.922 135.631 402.955 134.955 403.804 134.047" stroke="#263238" stroke-linecap="round" stroke-linejoin="round"/>
<path d="M400.842 119.981C400.842 121.316 401.306 122.413 401.873 122.413C402.439 122.413 402.903 121.316 402.903 119.981C402.903 118.646 402.439 117.55 401.873 117.55C401.306 117.55 400.842 118.63 400.842 119.981Z" fill="#263238"/>
<path d="M391.622 119.425C391.622 120.76 392.072 121.857 392.639 121.857C393.205 121.857 393.669 120.76 393.669 119.425C393.669 118.09 393.219 116.993 392.639 116.993C392.058 116.993 391.622 118.074 391.622 119.425Z" fill="#263238"/>
</svg>
